<svg width="51" height="50" viewBox="0 0 51 50" fill="none" xmlns="http://www.w3.org/2000/svg">
<g clip-path="url(#clip0_377_4511)">
<path d="M38.2168 1.83323L38.2168 1.83327L38.2125 1.82885C37.958 1.56376 37.7969 1.31631 37.7969 0.976562C37.7969 0.639416 37.9548 0.381887 38.2168 0.1199L38.5489 -0.212132L38.6367 -0.299999H38.761H41.9934C43.7067 -0.299999 44.6485 -0.293272 45.1891 -0.226969C45.4604 -0.193693 45.6701 -0.141731 45.8343 -0.0426331C46.0112 0.0641212 46.1025 0.205582 46.173 0.335262L46.1777 0.343885L46.1818 0.352798C46.2112 0.416571 46.2221 0.495602 46.2278 0.538525C46.2356 0.597389 46.2425 0.671247 46.2486 0.75709C46.261 0.929523 46.2715 1.16502 46.2801 1.45599C46.2973 2.03874 46.3071 2.85498 46.3071 3.85742V7.04102V7.16528L46.2192 7.25315L45.9848 7.48752C45.7794 7.69296 45.5471 7.83663 45.2818 7.88025C45.0155 7.92406 44.7558 7.86044 44.5086 7.72571C44.3629 7.64982 44.2242 7.55672 44.1103 7.41547C43.9955 7.27301 43.9227 7.10267 43.8743 6.89755C43.7816 6.50519 43.7637 5.91301 43.7637 4.98166C43.7637 4.98126 43.7637 4.98087 43.7637 4.98047L43.7583 4.08905L39.0219 8.82541L39.0216 8.82577C37.5756 10.2669 36.2366 11.5839 35.2428 12.5459C34.7461 13.0267 34.3347 13.4197 34.039 13.6955C33.8914 13.8331 33.7709 13.9432 33.6822 14.0208C33.6383 14.0593 33.5995 14.0922 33.5679 14.1171C33.5524 14.1294 33.5353 14.1423 33.5183 14.1538L33.5172 14.1546C33.5077 14.1611 33.4692 14.1875 33.4195 14.2027L33.4195 14.2028L33.4137 14.2045C33.2638 14.2473 33.1012 14.2708 32.9109 14.2246C32.7313 14.181 32.5541 14.0816 32.3558 13.9351C31.9644 13.6457 31.3948 13.0972 30.4347 12.1468L30.4336 12.1457L28.7219 10.434L20.3598 18.7961L11.7954 27.3606L11.7075 27.4484H11.5833H11.1829C10.7793 27.4484 10.43 27.2898 10.201 27.0019C9.97436 26.717 9.89005 26.3366 9.94846 25.9335L9.94832 25.9335L9.94993 25.9244C9.96104 25.8615 9.99032 25.813 9.99839 25.7996C9.99864 25.7992 9.99887 25.7988 9.99908 25.7985C10.0124 25.7763 10.0278 25.7545 10.0423 25.735C10.0717 25.6953 10.1111 25.6472 10.1581 25.5923C10.2528 25.4817 10.391 25.3291 10.5723 25.1344C10.9356 24.7444 11.481 24.1763 12.2194 23.4196C13.6965 21.9058 15.951 19.6318 19.0762 16.5066L28.0702 7.50283L28.1581 7.41484H28.2825H28.7219C28.7263 7.41484 28.7307 7.41484 28.7352 7.41484C28.8344 7.41474 28.9582 7.41462 29.0963 7.4609C29.2384 7.50851 29.3733 7.59627 29.533 7.72659C29.8435 7.9801 30.3416 8.4757 31.2956 9.42491L31.3261 9.45531L31.3266 9.45584L33.0676 11.1968L37.6895 6.57498L42.0113 2.25312H40.7434H38.761H38.6367L38.5489 2.16526L38.2168 1.83323Z" fill="black" stroke="black" stroke-width="0.6"/>
<path d="M46.3078 47.7469H47.1797C47.5747 47.7469 47.9058 47.7591 48.1795 47.7917C48.451 47.824 48.6854 47.8784 48.8764 47.9739C49.076 48.0737 49.2254 48.2173 49.3182 48.4123C49.4066 48.5979 49.4328 48.8075 49.4328 49.0234C49.4328 49.2636 49.3899 49.4847 49.2751 49.679C49.1595 49.8746 48.9881 50.0142 48.7817 50.1203L48.7817 50.1203L48.7787 50.1218C48.724 50.1492 48.6648 50.1627 48.619 50.1711C48.5679 50.1805 48.5061 50.1882 48.433 50.195C48.2865 50.2085 48.0743 50.2199 47.7708 50.2298C47.1625 50.2496 46.1671 50.264 44.5522 50.2744C41.321 50.2951 35.5973 50.3 25.5 50.3C15.4027 50.3 9.67895 50.2951 6.44778 50.2744C4.83285 50.264 3.83748 50.2496 3.22918 50.2298C2.92568 50.2199 2.71352 50.2085 2.56697 50.195C2.49386 50.1882 2.43209 50.1805 2.38099 50.1711C2.3352 50.1627 2.27598 50.1492 2.2213 50.1218L2.2213 50.1219L2.21826 50.1203C2.01193 50.0142 1.84048 49.8746 1.72488 49.679C1.61008 49.4847 1.56719 49.2636 1.56719 49.0234C1.56719 48.8056 1.59322 48.5942 1.68271 48.4075C1.77694 48.2109 1.92881 48.0676 2.13119 47.9689C2.32455 47.8746 2.56235 47.8215 2.83856 47.7901C3.11718 47.7585 3.4551 47.7469 3.85938 47.7469H4.7819L4.80938 43.2306L4.83868 38.4259L4.83916 38.3468L4.87854 38.2783L5.14221 37.8193L5.14579 37.8131L5.14966 37.807C5.31741 37.5449 5.6192 37.1783 5.84281 36.9882L5.8428 36.9882L5.84605 36.9855C6.01956 36.8422 6.18511 36.7169 6.38673 36.619C6.59027 36.5202 6.81572 36.4562 7.10674 36.4134C7.67337 36.3301 8.54239 36.3211 10.0801 36.3211C12.6207 36.3211 12.9819 36.3359 13.5234 36.5348L13.5234 36.5348L13.5267 36.5361C14.223 36.8013 14.8055 37.3695 15.1472 38.1062L15.1475 38.107C15.2051 38.2322 15.2588 38.3505 15.2982 38.528C15.3359 38.698 15.3588 38.9134 15.3748 39.2419C15.4068 39.8951 15.4142 41.0603 15.4287 43.3424L15.4289 43.377L15.4289 43.377L15.4563 47.7469H17.834H20.2108L20.2391 39.2275L20.2392 39.1912C20.2537 34.8427 20.2611 32.6448 20.2904 31.4805C20.3051 30.8992 20.3254 30.5612 20.3575 30.3378C20.3922 30.0959 20.4422 29.9808 20.5016 29.8536L20.5016 29.8536L20.5031 29.8503C20.785 29.2648 21.2992 28.7301 21.8815 28.4173L21.884 28.416C21.9877 28.3615 22.0922 28.3099 22.2384 28.2714C22.3792 28.2344 22.5473 28.2124 22.7826 28.1979C23.2496 28.1691 24.0455 28.1668 25.5488 28.1668H28.6738H28.7526L28.8211 28.2055L29.3582 28.5082L29.3582 28.5082L29.3607 28.5096C29.9999 28.8779 30.5699 29.5835 30.7686 30.2679L30.7688 30.2679L30.7715 30.2788C30.7873 30.3421 30.795 30.4507 30.801 30.5605C30.8079 30.6851 30.8143 30.854 30.8203 31.065C30.8323 31.4873 30.8427 32.0853 30.8513 32.8494C30.8684 34.3781 30.8781 36.5767 30.8781 39.375V47.7469H33.3125H35.7469V32.1973V16.3574V16.2892L35.7764 16.2276L36.0108 15.7393L36.0111 15.7386C36.3234 15.0925 36.8326 14.5813 37.4857 14.2872C37.7305 14.1765 37.9263 14.1188 38.41 14.089C38.8768 14.0602 39.6399 14.0555 41.0273 14.0555C42.4812 14.0555 43.2419 14.0577 43.6969 14.0891C43.9278 14.1051 44.0942 14.1293 44.24 14.169C44.3865 14.2089 44.501 14.2616 44.6207 14.3179C45.2995 14.6306 45.732 15.0629 46.0449 15.7414C46.0452 15.7422 46.0456 15.7429 46.046 15.7437L46.2783 16.2276L46.3078 16.2892V16.3574V32.1973V47.7469ZM43.6773 16.9159C43.6681 16.7964 43.6585 16.726 43.6507 16.6852C43.644 16.6831 43.6357 16.6808 43.6256 16.6783C43.5612 16.6626 43.4511 16.6475 43.2538 16.6362C42.8615 16.6136 42.1929 16.6086 41.0078 16.6086C39.7624 16.6086 39.1004 16.6112 38.7298 16.6337C38.5423 16.6451 38.4542 16.6605 38.4106 16.6738C38.4101 16.6739 38.4097 16.6741 38.4093 16.6742C38.409 16.6755 38.4087 16.6768 38.4085 16.6781C38.3971 16.7364 38.3848 16.8391 38.3736 17.0189C38.3512 17.3756 38.3354 17.9907 38.3244 19.0607C38.3024 21.1974 38.3 25.1212 38.3 32.3535V47.7469H41.0273H43.7547V32.3438C43.7547 24.7939 43.7522 20.8655 43.7291 18.8059C43.7175 17.7736 43.7007 17.2196 43.6773 16.9159ZM38.3913 16.6824C38.392 16.6815 38.3927 16.6806 38.3934 16.6798C38.3909 16.6811 38.3916 16.6816 38.3913 16.6824ZM22.9332 30.823L22.9334 30.8232L22.9246 30.8316L22.7727 30.9775V39.4531V47.7469H25.5488H28.325V39.4238V30.9233L28.1981 30.8075C28.1491 30.7627 28.1366 30.7551 28.1129 30.7461C28.0766 30.7322 28.0025 30.7142 27.828 30.7007C27.4789 30.6738 26.8401 30.6711 25.5586 30.6711H23.079L22.9332 30.823ZM12.7138 38.9783L12.7137 38.9785L12.7049 38.972C12.6952 38.9649 12.6312 38.9233 12.2088 38.9006C11.8096 38.8792 11.157 38.8742 10.0508 38.8742C8.79949 38.8742 8.1565 38.8769 7.80108 38.9016C7.62217 38.914 7.54279 38.9308 7.50418 38.9442C7.48335 38.9514 7.47738 38.9547 7.45041 38.9817C7.44151 38.9906 7.43767 38.9948 7.43563 38.9973L7.43423 38.999L7.43404 38.9993L7.43315 39.001C7.43261 39.0021 7.43173 39.004 7.43058 39.007C7.42823 39.0129 7.42468 39.0233 7.4205 39.04C7.40171 39.1151 7.3836 39.2599 7.37078 39.5646C7.34548 40.1657 7.34297 41.2949 7.34297 43.5059V47.7469H10.0703H12.7977V43.4668V39.0355L12.7138 38.9783Z" fill="black" stroke="black" stroke-width="0.6"/>
<path d="M7.7446 28.3576C7.76174 28.3534 7.77507 28.3497 7.78403 28.347L7.83199 28.323H7.90281C7.92669 28.323 7.94565 28.326 7.95017 28.3267L7.95052 28.3268C7.95801 28.328 7.96421 28.3292 7.96797 28.33C7.97567 28.3316 7.98266 28.3333 7.98763 28.3346C7.99807 28.3373 8.0097 28.3405 8.02146 28.3439C8.04547 28.351 8.07655 28.3607 8.11242 28.3726C8.184 28.3965 8.27906 28.4308 8.38004 28.4733C9.00556 28.7342 9.20755 29.3483 9.09303 29.8691C8.9787 30.3891 8.53947 30.8664 7.86375 30.8664C6.79899 30.8664 6.22983 29.5202 6.98755 28.7625C7.07177 28.6783 7.1739 28.5968 7.27352 28.5323C7.36398 28.4738 7.48742 28.406 7.60935 28.3857C7.65924 28.3774 7.70754 28.3669 7.7446 28.3576Z" fill="black" stroke="black" stroke-width="0.6"/>
</g>
<defs>
<clipPath id="clip0_377_4511">
<rect width="50" height="50" fill="white" transform="translate(0.5)"/>
</clipPath>
</defs>
</svg>
