<svg width="50" height="51" viewBox="0 0 50 51" fill="none" xmlns="http://www.w3.org/2000/svg">
<g clip-path="url(#clip0_377_4501)">
<path d="M17.3831 0.646484C13.0471 1.19336 8.94555 3.21484 5.83032 6.33008C-0.0681212 12.2188 -1.65015 21.1543 1.86547 28.6055C4.76586 34.7676 10.5666 39.0254 17.217 39.9043C22.1584 40.5488 27.2073 39.2793 31.2502 36.3789C31.7288 36.0371 32.1584 35.7539 32.1975 35.7539C32.2366 35.7539 35.5081 38.9863 39.4534 42.9219C47.0217 50.4902 47.0315 50.4902 47.9006 50.5C48.3303 50.5 49.1799 50.1484 49.4338 49.8555C49.717 49.5332 50.0002 48.8105 50.0002 48.4004C50.0002 47.5312 49.9905 47.5215 42.4221 39.9531C38.4866 36.0078 35.2541 32.7461 35.2541 32.707C35.2541 32.668 35.5373 32.2383 35.8889 31.7402C38.3108 28.3125 39.5413 24.4941 39.551 20.3535C39.551 15.002 37.5002 10.0508 33.7209 6.29102C30.7327 3.32227 27.0608 1.44727 22.8518 0.744141C21.5237 0.519531 18.7698 0.470703 17.3831 0.646484ZM22.0706 4.8457C26.5237 5.56836 30.3225 7.9707 32.7346 11.6035C34.5315 14.3086 35.3616 17.0137 35.3713 20.2266C35.3713 21.7793 35.2639 22.7168 34.9123 24.1328C33.5354 29.6309 29.1311 34.0352 23.6331 35.4121C22.217 35.7637 21.2795 35.8711 19.7268 35.8711C16.5139 35.8613 13.8088 35.0312 11.1038 33.2344C6.79711 30.373 4.19946 25.5195 4.19946 20.2949C4.19946 17.6777 4.73657 15.4707 5.95727 13.1074C7.92993 9.28906 11.4456 6.44727 15.6741 5.22656C17.4612 4.71875 20.2248 4.55273 22.0706 4.8457Z" fill="black"/>
</g>
<defs>
<clipPath id="clip0_377_4501">
<rect width="50" height="50" fill="white" transform="translate(0 0.5)"/>
</clipPath>
</defs>
</svg>
