<svg width="51" height="50" viewBox="0 0 51 50" fill="none" xmlns="http://www.w3.org/2000/svg">
<g clip-path="url(#clip0_377_4482)">
<path d="M23.1064 0.107204C18.3701 0.595486 13.8975 2.40213 10.0791 5.35135C8.99512 6.18142 6.68066 8.49588 5.85059 9.57986C4.30762 11.5623 2.83301 14.2088 2.00293 16.4549C1.54395 17.7049 0.958008 20.0388 0.733398 21.533C0.479492 23.1736 0.479492 26.8162 0.733398 28.4666C0.958008 29.9412 1.54395 32.2849 2.0127 33.5545C2.84277 35.8103 4.30762 38.4373 5.85059 40.4197C6.6416 41.4451 8.87793 43.701 9.87402 44.492C11.8955 46.0838 14.6396 47.6365 16.9443 48.4861C18.2139 48.9549 20.5576 49.5408 22.0322 49.7654C23.4775 49.9803 27.2275 50.0193 28.5752 49.824C33.2822 49.1502 37.2471 47.4803 40.9287 44.6482C41.9346 43.867 44.1904 41.6306 44.9912 40.6248C46.5635 38.6326 48.1455 35.8299 48.9854 33.5545C49.4541 32.2849 50.04 29.9412 50.2647 28.4666C50.4014 27.5877 50.4404 26.7185 50.4404 24.9998C50.4404 22.3533 50.3135 21.2303 49.7178 18.8865C49.249 17.031 48.8096 15.8592 47.9111 14.0135C45.9971 10.0779 43.0283 6.699 39.3174 4.20877C36.2022 2.11892 32.8623 0.839626 29.0147 0.243923C27.7842 0.0583763 24.3564 -0.0295143 23.1064 0.107204ZM27.501 3.02713C35.167 3.73025 41.9541 8.42752 45.3232 15.3709C46.3584 17.49 46.9443 19.365 47.335 21.826C47.5791 23.3299 47.5791 26.6697 47.335 28.1736C46.9443 30.6346 46.3584 32.5096 45.3232 34.6287C43.1455 39.1013 39.6104 42.6365 35.1182 44.8338C33.0088 45.8592 31.1338 46.4451 28.6729 46.8357C27.1689 47.0799 23.8291 47.0799 22.3252 46.8357C18.0967 46.1521 14.4346 44.492 11.2412 41.8162C6.37793 37.7439 3.42871 31.3963 3.42871 24.9998C3.42871 18.6033 6.36816 12.2849 11.2412 8.17361C15.7725 4.36502 21.6807 2.49002 27.501 3.02713Z" fill="black"/>
<path d="M24.7969 6.16211C24.1328 6.50391 24.0352 6.85547 24.0352 8.88672C24.0352 10.459 24.0547 10.6934 24.2305 11.0352C24.4551 11.4746 25.0117 11.8164 25.5 11.8164C25.9883 11.8164 26.5449 11.4746 26.7695 11.0352C26.9453 10.6934 26.9648 10.459 26.9648 8.88672C26.9648 7.31445 26.9453 7.08008 26.7695 6.73828C26.4082 6.02539 25.5293 5.77148 24.7969 6.16211Z" fill="black"/>
<path d="M12.3345 11.3278C11.3482 11.9332 11.4068 13.3297 12.442 13.8473C13.067 14.1696 13.565 14.0817 14.0728 13.5739C14.5806 13.0661 14.6685 12.568 14.3462 11.943C13.9654 11.1813 13.0474 10.8981 12.3345 11.3278Z" fill="black"/>
<path d="M37.2172 11.3182C36.729 11.5721 36.3969 12.2557 36.4848 12.7928C36.5825 13.3495 37.1489 13.9159 37.6958 14.0135C38.2426 14.1014 38.936 13.7596 39.1899 13.2811C39.8637 11.992 38.4965 10.6249 37.2172 11.3182Z" fill="black"/>
<path d="M24.7969 14.9512C24.5723 15.0684 24.3477 15.293 24.2305 15.5273C24.0449 15.8984 24.0352 16.0938 24.0352 20.6055C24.0352 24.707 24.0547 25.3418 24.1914 25.6152C24.4062 26.0449 33.1758 34.834 33.625 35.0684C33.8301 35.166 34.123 35.2539 34.2891 35.2539C34.7773 35.2539 35.334 34.9121 35.5586 34.4727C35.8027 33.9941 35.8027 33.5938 35.5684 33.125C35.4609 32.9297 33.4883 30.8789 31.1738 28.5645L26.9648 24.3652V20.1367C26.9648 16.0938 26.9551 15.8887 26.7695 15.5273C26.4082 14.8145 25.5293 14.5605 24.7969 14.9512Z" fill="black"/>
<path d="M7.21875 23.7402C6.79883 23.9551 6.45703 24.5312 6.45703 25C6.45703 25.4883 6.79883 26.0449 7.23828 26.2695C7.58008 26.4453 7.81445 26.4648 9.38672 26.4648C11.4375 26.4648 11.7695 26.3672 12.1211 25.6836C12.3652 25.1953 12.3652 24.8047 12.1211 24.3164C11.7695 23.623 11.4473 23.5352 9.36719 23.5352C7.78516 23.5449 7.54102 23.5645 7.21875 23.7402Z" fill="black"/>
<path d="M39.4453 23.7402C39.0254 23.9551 38.6836 24.5312 38.6836 25C38.6836 25.4883 39.0254 26.0449 39.4648 26.2695C39.8066 26.4453 40.041 26.4648 41.6133 26.4648C43.1855 26.4648 43.4199 26.4453 43.7617 26.2695C44.2012 26.0449 44.543 25.4883 44.543 25C44.543 24.5117 44.2012 23.9551 43.7617 23.7305C43.4199 23.5547 43.1953 23.5352 41.5938 23.5352C40.0117 23.5449 39.7676 23.5645 39.4453 23.7402Z" fill="black"/>
<path d="M12.4228 36.1521C11.4071 36.699 11.3583 38.076 12.3349 38.6717C13.0282 39.0916 13.9462 38.8181 14.3466 38.076C15.0106 36.8357 13.663 35.4881 12.4228 36.1521Z" fill="black"/>
<path d="M37.4517 36.0449C37.276 36.0938 37.0123 36.2793 36.8463 36.4648C36.0162 37.4121 36.6803 38.8672 37.9498 38.8672C39.4342 38.8672 39.9029 36.8359 38.5846 36.1523C38.1256 35.918 37.9303 35.9082 37.4517 36.0449Z" fill="black"/>
<path d="M24.7969 38.3887C24.1328 38.7305 24.0352 39.082 24.0352 41.1133C24.0352 43.1641 24.1328 43.4961 24.8164 43.8477C25.3047 44.0918 25.6953 44.0918 26.1836 43.8477C26.8672 43.4961 26.9648 43.1641 26.9648 41.1133C26.9648 39.541 26.9453 39.3066 26.7695 38.9648C26.4082 38.252 25.5293 37.998 24.7969 38.3887Z" fill="black"/>
</g>
<defs>
<clipPath id="clip0_377_4482">
<rect width="50" height="50" fill="white" transform="translate(0.5)"/>
</clipPath>
</defs>
</svg>
