<svg width="409" height="326" viewBox="0 0 409 326" fill="none" xmlns="http://www.w3.org/2000/svg">
<ellipse cx="3.50151" cy="3.50491" rx="3.50151" ry="3.50491" transform="matrix(0.874193 -0.485578 0.484853 0.874596 37 247.7)" fill="#0D37F2"/>
<ellipse cx="3.50151" cy="3.50491" rx="3.50151" ry="3.50491" transform="matrix(0.874193 -0.485578 0.484853 0.874596 301 163.545)" fill="#0D37F2"/>
<ellipse cx="3.50151" cy="3.50491" rx="3.50151" ry="3.50491" transform="matrix(0.874193 -0.485578 0.484853 0.874596 340 100.43)" fill="#0D37F2"/>
<path d="M42.258 249.588L58.306 180.584L131.498 187.563L143.552 103.061L244.248 55.5332L304.909 164.732L343.548 100.542L408.093 143.984" stroke="#0D37F2" stroke-width="2.31094"/>
<ellipse cx="345" cy="103.435" rx="22" ry="22.0404" fill="#EAEFFF"/>
<path d="M339.382 97.3924C340.922 96.1585 342.875 95.4207 345 95.4207C347.125 95.4207 349.078 96.1585 350.618 97.3924L352.071 95.9363L353.485 97.3531L352.032 98.8092C353.264 100.352 354 102.308 354 104.437C354 109.417 349.971 113.454 345 113.454C340.029 113.454 336 109.417 336 104.437C336 102.308 336.736 100.352 337.968 98.8092L336.515 97.3531L337.929 95.9363L339.382 97.3924ZM345 111.45C348.866 111.45 352 108.31 352 104.437C352 100.564 348.866 97.4243 345 97.4243C341.134 97.4243 338 100.564 338 104.437C338 108.31 341.134 111.45 345 111.45ZM346 103.435H349L344 109.947V105.439H341L346 98.9223V103.435Z" fill="#0D37F2"/>
<ellipse cx="305" cy="163.545" rx="22" ry="22.0404" fill="#EAEFFF"/>
<path d="M299.382 157.502C300.922 156.268 302.875 155.531 305 155.531C307.125 155.531 309.078 156.268 310.618 157.502L312.071 156.046L313.485 157.463L312.032 158.919C313.264 160.462 314 162.418 314 164.547C314 169.527 309.971 173.564 305 173.564C300.029 173.564 296 169.527 296 164.547C296 162.418 296.736 160.462 297.968 158.919L296.515 157.463L297.929 156.046L299.382 157.502ZM305 171.56C308.866 171.56 312 168.42 312 164.547C312 160.674 308.866 157.534 305 157.534C301.134 157.534 298 160.674 298 164.547C298 168.42 301.134 171.56 305 171.56ZM306 163.545H309L304 170.057V165.549H301L306 159.032V163.545Z" fill="#0D37F2"/>
<ellipse cx="245" cy="53.3434" rx="22" ry="22.0404" fill="#EAEFFF"/>
<path d="M239.382 47.3004C240.922 46.0666 242.875 45.3287 245 45.3287C247.125 45.3287 249.078 46.0666 250.618 47.3004L252.071 45.8444L253.485 47.2612L252.032 48.7173C253.264 50.2598 254 52.2164 254 54.3453C254 59.325 249.971 63.3618 245 63.3618C240.029 63.3618 236 59.325 236 54.3453C236 52.2164 236.736 50.2598 237.968 48.7173L236.515 47.2612L237.929 45.8444L239.382 47.3004ZM245 61.3581C248.866 61.3581 252 58.2184 252 54.3453C252 50.4722 248.866 47.3324 245 47.3324C241.134 47.3324 238 50.4722 238 54.3453C238 58.2184 241.134 61.3581 245 61.3581ZM246 53.3434H249L244 59.8554V55.3471H241L246 48.8304V53.3434Z" fill="#0D37F2"/>
<ellipse cx="145" cy="104.437" rx="22" ry="22.0404" fill="#EAEFFF"/>
<path d="M139.382 98.3941C140.922 97.1602 142.875 96.4224 145 96.4224C147.125 96.4224 149.078 97.1602 150.618 98.3941L152.071 96.938L153.485 98.3548L152.032 99.8109C153.264 101.353 154 103.31 154 105.439C154 110.419 149.971 114.455 145 114.455C140.029 114.455 136 110.419 136 105.439C136 103.31 136.736 101.353 137.968 99.8109L136.515 98.3548L137.929 96.938L139.382 98.3941ZM145 112.452C148.866 112.452 152 109.312 152 105.439C152 101.566 148.866 98.426 145 98.426C141.134 98.426 138 101.566 138 105.439C138 109.312 141.134 112.452 145 112.452ZM146 104.437H149L144 110.949V106.441H141L146 99.924V104.437Z" fill="#0D37F2"/>
<ellipse cx="138" cy="191.597" rx="22" ry="22.0404" fill="#EAEFFF"/>
<path d="M132.382 185.554C133.922 184.32 135.875 183.582 138 183.582C140.125 183.582 142.078 184.32 143.618 185.554L145.071 184.098L146.485 185.515L145.032 186.971C146.264 188.513 147 190.47 147 192.599C147 197.579 142.971 201.615 138 201.615C133.029 201.615 129 197.579 129 192.599C129 190.47 129.736 188.513 130.968 186.971L129.515 185.515L130.929 184.098L132.382 185.554ZM138 199.612C141.866 199.612 145 196.472 145 192.599C145 188.726 141.866 185.586 138 185.586C134.134 185.586 131 188.726 131 192.599C131 196.472 134.134 199.612 138 199.612ZM139 191.597H142L137 198.109V193.601H134L139 187.084V191.597Z" fill="#0D37F2"/>
<ellipse cx="65" cy="175.568" rx="22" ry="22.0404" fill="#EAEFFF"/>
<path d="M59.3823 169.524C60.922 168.291 62.875 167.553 65 167.553C67.125 167.553 69.078 168.291 70.6177 169.524L72.0711 168.068L73.4853 169.485L72.0319 170.941C73.2635 172.484 74 174.44 74 176.569C74 181.549 69.9706 185.586 65 185.586C60.0294 185.586 56 181.549 56 176.569C56 174.44 56.7365 172.484 57.9681 170.941L56.5147 169.485L57.9289 168.068L59.3823 169.524ZM65 183.582C68.866 183.582 72 180.442 72 176.569C72 172.696 68.866 169.556 65 169.556C61.134 169.556 58 172.696 58 176.569C58 180.442 61.134 183.582 65 183.582ZM66 175.567H69L64 182.079V177.571H61L66 171.054V175.567Z" fill="#0D37F2"/>
</svg>
