<svg width="454" height="273" viewBox="0 0 454 273" fill="none" xmlns="http://www.w3.org/2000/svg">
<mask id="mask0_377_4849" style="mask-type:alpha" maskUnits="userSpaceOnUse" x="-87" y="-101" width="493" height="413">
<path d="M2.78726 -100.924L2.78726 311.924" stroke="black" stroke-width="1.67371"/>
<path d="M7.25016 -100.924L7.25016 311.924" stroke="black" stroke-width="1.67371"/>
<path d="M11.715 -100.924L11.715 311.924" stroke="black" stroke-width="1.67371"/>
<path d="M16.1779 -100.924L16.1779 311.924" stroke="black" stroke-width="1.67371"/>
<path d="M20.6408 -100.924L20.6408 311.924" stroke="black" stroke-width="1.67371"/>
<path d="M25.1037 -100.924L25.1037 311.924" stroke="black" stroke-width="1.67371"/>
<path d="M29.5666 -100.924L29.5666 311.924" stroke="black" stroke-width="1.67371"/>
<path d="M34.0295 -100.924L34.0295 311.924" stroke="black" stroke-width="1.67371"/>
<path d="M38.4943 -100.924L38.4943 311.924" stroke="black" stroke-width="1.67371"/>
<path d="M42.9572 -100.924L42.9572 311.924" stroke="black" stroke-width="1.67371"/>
<path d="M47.4201 -100.924L47.4201 311.924" stroke="black" stroke-width="1.67371"/>
<path d="M51.883 -100.924L51.883 311.924" stroke="black" stroke-width="1.67371"/>
<path d="M56.3459 -100.924L56.3459 311.924" stroke="black" stroke-width="1.67371"/>
<path d="M60.8087 -100.924L60.8087 311.924" stroke="black" stroke-width="1.67371"/>
<path d="M65.2736 -100.924L65.2736 311.924" stroke="black" stroke-width="1.67371"/>
<path d="M69.7365 -100.924L69.7365 311.924" stroke="black" stroke-width="1.67371"/>
<path d="M74.1994 -100.924L74.1994 311.924" stroke="black" stroke-width="1.67371"/>
<path d="M78.6623 -100.924L78.6623 311.924" stroke="black" stroke-width="1.67371"/>
<path d="M83.1252 -100.924L83.1252 311.924" stroke="black" stroke-width="1.67371"/>
<path d="M87.588 -100.924L87.588 311.924" stroke="black" stroke-width="1.67371"/>
<path d="M92.0529 -100.924L92.0529 311.924" stroke="black" stroke-width="1.67371"/>
<path d="M96.5158 -100.924L96.5158 311.924" stroke="black" stroke-width="1.67371"/>
<path d="M100.979 -100.924L100.979 311.924" stroke="black" stroke-width="1.67371"/>
<path d="M105.442 -100.924L105.442 311.924" stroke="black" stroke-width="1.67371"/>
<path d="M109.904 -100.924L109.904 311.924" stroke="black" stroke-width="1.67371"/>
<path d="M114.367 -100.924L114.367 311.924" stroke="black" stroke-width="1.67371"/>
<path d="M118.83 -100.924L118.83 311.924" stroke="black" stroke-width="1.67371"/>
<path d="M123.295 -100.924L123.295 311.924" stroke="black" stroke-width="1.67371"/>
<path d="M127.758 -100.924L127.758 311.924" stroke="black" stroke-width="1.67371"/>
<path d="M132.221 -100.924L132.221 311.924" stroke="black" stroke-width="1.67371"/>
<path d="M136.684 -100.924L136.684 311.924" stroke="black" stroke-width="1.67371"/>
<path d="M141.147 -100.924L141.147 311.924" stroke="black" stroke-width="1.67371"/>
<path d="M145.61 -100.924L145.61 311.924" stroke="black" stroke-width="1.67371"/>
<path d="M150.074 -100.924L150.074 311.924" stroke="black" stroke-width="1.67371"/>
<path d="M154.537 -100.924L154.537 311.924" stroke="black" stroke-width="1.67371"/>
<path d="M159 -100.924L159 311.924" stroke="black" stroke-width="1.67371"/>
<path d="M163.463 -100.924L163.463 311.924" stroke="black" stroke-width="1.67371"/>
<path d="M167.926 -100.924L167.926 311.924" stroke="black" stroke-width="1.67371"/>
<path d="M172.389 -100.924L172.389 311.924" stroke="black" stroke-width="1.67371"/>
<path d="M176.854 -100.924L176.854 311.924" stroke="black" stroke-width="1.67371"/>
<path d="M181.317 -100.924L181.317 311.924" stroke="black" stroke-width="1.67371"/>
<path d="M185.779 -100.924L185.779 311.924" stroke="black" stroke-width="1.67371"/>
<path d="M190.242 -100.924L190.242 311.924" stroke="black" stroke-width="1.67371"/>
<path d="M194.705 -100.924L194.705 311.924" stroke="black" stroke-width="1.67371"/>
<path d="M199.168 -100.924L199.168 311.924" stroke="black" stroke-width="1.67371"/>
<path d="M203.633 -100.924L203.633 311.924" stroke="black" stroke-width="1.67371"/>
<path d="M208.096 -100.924L208.096 311.924" stroke="black" stroke-width="1.67371"/>
<path d="M212.559 -100.924L212.559 311.924" stroke="black" stroke-width="1.67371"/>
<path d="M217.022 -100.924L217.022 311.924" stroke="black" stroke-width="1.67371"/>
<path d="M221.485 -100.924L221.485 311.924" stroke="black" stroke-width="1.67371"/>
<path d="M225.947 -100.924L225.947 311.924" stroke="black" stroke-width="1.67371"/>
<path d="M230.412 -100.924L230.412 311.924" stroke="black" stroke-width="1.67371"/>
<path d="M234.875 -100.924L234.875 311.924" stroke="black" stroke-width="1.67371"/>
<path d="M239.338 -100.924L239.338 311.924" stroke="black" stroke-width="1.67371"/>
<path d="M243.801 -100.924L243.801 311.924" stroke="black" stroke-width="1.67371"/>
<path d="M248.264 -100.924L248.264 311.924" stroke="black" stroke-width="1.67371"/>
<path d="M252.727 -100.924L252.727 311.924" stroke="black" stroke-width="1.67371"/>
<path d="M257.192 -100.924V311.924" stroke="black" stroke-width="1.67371"/>
<path d="M261.654 -100.924V311.924" stroke="black" stroke-width="1.67371"/>
<path d="M266.117 -100.924V311.924" stroke="black" stroke-width="1.67371"/>
<path d="M270.58 -100.924V311.924" stroke="black" stroke-width="1.67371"/>
<path d="M275.043 -100.924V311.924" stroke="black" stroke-width="1.67371"/>
<path d="M279.506 -100.924V311.924" stroke="black" stroke-width="1.67371"/>
<path d="M283.971 -100.924V311.924" stroke="black" stroke-width="1.67371"/>
<path d="M288.434 -100.924V311.924" stroke="black" stroke-width="1.67371"/>
<path d="M292.897 -100.924V311.924" stroke="black" stroke-width="1.67371"/>
<path d="M297.36 -100.924V311.924" stroke="black" stroke-width="1.67371"/>
<path d="M301.822 -100.924V311.924" stroke="black" stroke-width="1.67371"/>
<path d="M306.285 -100.924V311.924" stroke="black" stroke-width="1.67371"/>
<path d="M310.75 -100.924V311.924" stroke="black" stroke-width="1.67371"/>
<path d="M315.213 -100.924V311.924" stroke="black" stroke-width="1.67371"/>
<path d="M319.676 -100.924V311.924" stroke="black" stroke-width="1.67371"/>
<path d="M324.139 -100.924V311.924" stroke="black" stroke-width="1.67371"/>
<path d="M328.602 -100.924V311.924" stroke="black" stroke-width="1.67371"/>
<path d="M333.067 -100.924V311.924" stroke="black" stroke-width="1.67371"/>
<path d="M337.529 -100.924V311.924" stroke="black" stroke-width="1.67371"/>
<path d="M341.992 -100.924V311.924" stroke="black" stroke-width="1.67371"/>
<path d="M346.455 -100.924V311.924" stroke="black" stroke-width="1.67371"/>
<path d="M350.918 -100.924V311.924" stroke="black" stroke-width="1.67371"/>
<path d="M355.381 -100.924V311.924" stroke="black" stroke-width="1.67371"/>
<path d="M359.846 -100.924V311.924" stroke="black" stroke-width="1.67371"/>
<path d="M364.309 -100.924V311.924" stroke="black" stroke-width="1.67371"/>
<path d="M368.772 -100.924V311.924" stroke="black" stroke-width="1.67371"/>
<path d="M373.235 -100.924V311.924" stroke="black" stroke-width="1.67371"/>
<path d="M377.697 -100.924V311.924" stroke="black" stroke-width="1.67371"/>
<path d="M382.16 -100.924V311.924" stroke="black" stroke-width="1.67371"/>
<path d="M386.625 -100.924V311.924" stroke="black" stroke-width="1.67371"/>
<path d="M391.088 -100.924V311.924" stroke="black" stroke-width="1.67371"/>
<path d="M395.551 -100.924V311.924" stroke="black" stroke-width="1.67371"/>
<path d="M400.014 -100.924V311.924" stroke="black" stroke-width="1.67371"/>
<path d="M404.477 -100.924V311.924" stroke="black" stroke-width="1.67371"/>
</mask>
<g mask="url(#mask0_377_4849)">
<path d="M113.656 128.698C97.4663 128.14 2 235.86 2 235.86V281.074C2 286.004 5.9965 290 10.9264 290H448.074C453.004 290 457 286.004 457 281.074V2C457 2 360.975 106.372 352.601 109.163C344.227 111.953 265.509 106.372 251.552 109.163C237.595 111.953 219.73 154.26 205.773 155.488C191.816 156.717 154.969 155.488 148.27 155.488C141.571 155.488 129.847 129.256 113.656 128.698Z" fill="url(#paint0_linear_377_4849)"/>
<path d="M110.656 128.698C94.4663 128.14 -1 235.86 -1 235.86V281.074C-1 286.004 2.9965 290 7.92643 290H445.074C450.004 290 454 286.004 454 281.074V2C454 2 357.975 106.372 349.601 109.163C341.227 111.953 262.509 106.372 248.552 109.163C234.595 111.953 216.73 154.26 202.773 155.488C188.816 156.717 151.969 155.488 145.27 155.488C138.571 155.488 126.847 129.256 110.656 128.698Z" fill="url(#paint1_linear_377_4849)"/>
</g>
<path d="M-1 236C-1 236 94.4663 128.215 110.656 128.773C126.847 129.332 138.571 155.58 145.27 155.58C151.969 155.58 188.816 156.809 202.773 155.58C216.73 154.351 234.595 112.019 248.552 109.227C262.509 106.434 341.227 112.019 349.601 109.227C357.975 106.434 454 2 454 2" stroke="#2C4DF6" stroke-width="3.34741" stroke-linecap="round"/>
<path d="M304.5 114.623C307.901 114.623 310.674 111.879 310.674 108.475C310.674 105.07 307.901 102.326 304.5 102.326C301.099 102.326 298.326 105.07 298.326 108.475C298.326 111.879 301.099 114.623 304.5 114.623Z" fill="white" stroke="#3152F7" stroke-width="3.34741"/>
<defs>
<linearGradient id="paint0_linear_377_4849" x1="290.074" y1="71.7674" x2="450.241" y2="330.223" gradientUnits="userSpaceOnUse">
<stop stop-color="#E6E5FB"/>
<stop offset="1" stop-color="#FEFDFF"/>
</linearGradient>
<linearGradient id="paint1_linear_377_4849" x1="287.074" y1="71.7674" x2="447.241" y2="330.223" gradientUnits="userSpaceOnUse">
<stop stop-color="#E6E5FB"/>
<stop offset="1" stop-color="#FEFDFF"/>
</linearGradient>
</defs>
</svg>
