<svg width="29" height="31" viewBox="0 0 29 31" fill="none" xmlns="http://www.w3.org/2000/svg">
<path d="M12.4505 28.7221L0.361113 5.26132C0.0847579 4.72461 -0.0368451 4.12258 0.0096983 3.52164C0.0562417 2.9207 0.269135 2.34418 0.624885 1.85568C0.980646 1.36718 1.46544 0.985656 2.02583 0.753192C2.58621 0.520729 3.20041 0.446359 3.80068 0.538289L26.2053 3.96961C26.7211 4.04862 27.2107 4.248 27.6338 4.55134C28.0568 4.8547 28.4012 5.25337 28.6388 5.71456C28.8762 6.17575 29.0001 6.6863 29 7.20423C28.9999 7.72215 28.8759 8.23268 28.6383 8.69379L18.3173 28.7233C18.0402 29.2585 17.6197 29.7075 17.1021 30.0209C16.5845 30.3344 15.9899 30.5001 15.3836 30.5C14.7772 30.4999 14.1826 30.3339 13.6652 30.0203C13.1477 29.7066 12.7274 29.2574 12.4505 28.7221Z" fill="#1DACE3"/>
</svg>
