<svg width="51" height="50" viewBox="0 0 51 50" fill="none" xmlns="http://www.w3.org/2000/svg">
<g clip-path="url(#clip0_56_1455)">
<path d="M1.90286 0.483093C0.418352 1.54589 0.500825 0.314011 0.500825 19.5652C0.500825 35.6763 0.521443 36.9082 0.871953 37.5121C1.7173 39.0097 1.61421 39.0097 9.90273 39.0821C18.5418 39.1787 17.717 38.913 17.717 41.4976C17.717 43.2609 17.2634 44.2754 15.614 46.2077L14.2119 47.8261H12.5212C11.5728 47.8261 10.6038 47.8986 10.3563 47.971C9.79964 48.1643 9.57284 48.8406 9.88211 49.5169C10.1089 50 10.2326 50 23.4695 50C36.1497 50 36.8507 49.9758 37.16 49.5652C37.6136 48.9855 37.593 48.7198 37.1394 48.2367C36.8301 47.9227 36.3353 47.8261 34.8714 47.8261H32.9745L31.6756 46.3043C29.923 44.3237 29.5931 43.5266 29.5931 41.5459C29.5931 39.0821 29.5519 39.1304 31.9024 39.1304H33.9436L34.0879 40.1208C34.4178 42.4879 36.2322 45.2899 38.294 46.57C41.5929 48.6232 45.6753 47.8019 48.1908 44.5894C50.0052 42.2705 50.5 40.2657 50.5 35.314V32.6087H48.6444H46.7887L46.7681 18.4058C46.7681 10.6039 46.6856 3.64734 46.6032 2.92271C46.4795 1.83575 46.3145 1.47343 45.696 0.797104L44.9331 0H23.7582C3.11934 0 2.54203 0.0241547 1.90286 0.483093ZM44.6857 2.46377C44.8712 2.68116 44.9331 5.91788 44.9331 15.5072V28.2609H44.0259H43.1187L43.0362 26.087C42.9331 23.6232 42.6238 22.8744 41.3661 22.1498C40.0466 21.3768 38.3971 22.1498 37.7992 23.8164C37.6342 24.2754 37.5105 25.4348 37.5105 26.4493V28.2609H19.8819H2.25337V15.5072C2.25337 5.91788 2.31523 2.68116 2.50079 2.46377C2.8513 2.05314 44.3352 2.05314 44.6857 2.46377ZM40.9744 24.2029C41.16 24.4203 41.2218 25.9662 41.2218 29.6377V34.7826H44.9537H48.6856L48.6031 37.4879C48.5413 39.7343 48.4382 40.4106 48.0671 41.256C47.3454 42.8502 46.2526 44.1304 44.9743 44.8551C43.964 45.4348 43.5517 45.5314 42.0465 45.5314C40.4795 45.5314 40.1703 45.4589 39.2012 44.8068C37.6961 43.8406 36.3559 42.0531 35.9642 40.5072C35.593 39.0338 35.5518 35.4831 35.9023 35.0725C36.0466 34.9034 36.459 34.7826 36.8301 34.7826H37.5105V36.9565V39.1304H38.4383H39.3662V31.8116C39.3662 24.1304 39.3868 23.913 40.294 23.913C40.5414 23.913 40.8301 24.0338 40.9744 24.2029ZM37.5105 31.4976V32.5362L36.5002 32.7053C34.8714 32.9469 33.7992 34.3478 33.7992 36.2319V36.9565H18.2737C6.48011 36.9565 2.68636 36.8841 2.50079 36.6667C2.33585 36.4734 2.25337 35.3865 2.25337 33.4058V30.4348H19.8819H37.5105V31.4976ZM44.9331 31.5217V32.6087H44.0053H43.0774V31.5217V30.4348H44.0053H44.9331V31.5217ZM28.0261 41.5459C28.0261 44.372 28.2117 44.9517 29.6344 46.6667L30.5828 47.8261H23.5726H16.5624L17.7377 46.401C19.1603 44.7101 19.449 43.6957 19.3253 40.9903L19.2222 39.1304H23.6345H28.0261V41.5459Z" fill="#110808"/>
<path d="M11.5 16.5V22H12.375H13.25V19.8V17.6H15H16.75V19.8V22H17.625H18.5V16.5V11H15H11.5V16.5ZM16.75 14.3V15.4H15H13.25V14.3V13.2H15H16.75V14.3Z" fill="#110808"/>
<path d="M20.5 16.5V22H24H27.5V16.5V11H24H20.5V16.5ZM25.75 16.5V19.8H24H22.25V16.5V13.2H24H25.75V16.5Z" fill="#110808"/>
<path d="M30.5 14.3V17.6H33.2222H35.9444V18.7V19.8H33.2222H30.5V20.9V22H34H37.5V18.7V15.4H34.875H32.25V14.3V13.2H34.875H37.5V12.1V11H34H30.5V14.3Z" fill="#110808"/>
<path d="M22.944 32.4511C22.3329 33.0604 22.3564 33.9508 22.991 34.56C23.6725 35.1692 24.3776 35.1458 25.0122 34.4897C25.6467 33.8102 25.6702 33.3884 25.0357 32.5917C24.4481 31.8654 23.602 31.7951 22.944 32.4511Z" fill="#110808"/>
</g>
<defs>
<clipPath id="clip0_56_1455">
<rect width="50" height="50" fill="white" transform="translate(0.5)"/>
</clipPath>
</defs>
</svg>
