<svg width="55" height="34" viewBox="0 0 55 34" fill="none" xmlns="http://www.w3.org/2000/svg">
<path d="M8.42972 16.5204C8.42972 11.8677 10.5966 6.766 14.6779 3.76436C13.5359 3.25605 12.3426 2.99633 11.1018 3.00004C10.9151 3.00004 10.7321 3.00746 10.549 3.01488C6.76061 3.21153 3.47365 5.63807 1.75329 9.0664C0.633236 11.3037 0 13.8379 0 16.5204C0 18.9321 0.512445 21.2251 1.43119 23.288C3.01611 26.8536 6.20791 29.5028 10.0403 29.9369C10.388 29.9777 10.743 29.9963 11.1018 30C12.4634 30.0037 13.7628 29.6883 15 29.0798C10.8309 26.0893 8.42972 21.2251 8.42972 16.5204Z" fill="url(#paint0_linear_377_2496)"/>
<path d="M33 25.3062C36.4765 29.3867 40.3131 32.6756 44.5137 33.5266C50.4203 34.7232 55 33.2739 55 33.2739C48.2366 32.7685 42.5613 25.2393 37.8072 18C37.4205 18.602 37.0376 19.1966 36.6622 19.7801C35.3543 21.8203 34.1487 23.6971 33 25.3062Z" fill="url(#paint1_linear_377_2496)"/>
<path d="M29.9932 5.89139C23.9954 -0.418836 16.541 0.0138433 16.541 0.0138433C11.6927 -0.235043 7 2.95453 7 2.95453C7 2.95453 13.3695 -0.418836 19.3672 5.89522C21.4499 8.08925 23.8437 11.8838 26.541 16C28.2367 13.4422 30.0577 10.8117 32 8.39174C31.3058 7.41917 30.6343 6.56912 29.9932 5.89139Z" fill="url(#paint2_linear_377_2496)"/>
<path d="M43.5108 4.46427C41.641 5.90015 39.9768 7.60139 38.4384 9.40077C36.9075 11.2111 35.4604 13.1013 34.0894 15.0498C31.3133 18.9284 28.7847 22.9889 25.7686 26.8276C25.0032 27.78 24.2073 28.7215 23.3048 29.5939C22.387 30.459 21.3893 31.2442 20.3001 31.9022C19.569 32.3348 18.7959 32.6983 18 33C20.639 32.6983 25.384 31.5787 29.4587 27.5219C35.4794 21.5275 43.7355 1.82881 55 1.00727C55 1.00727 54.981 1.00364 54.9695 1C53.2444 1.00364 51.5308 1.15995 49.8628 1.50892C47.4865 1.91969 45.392 3.0393 43.5108 4.46427Z" fill="url(#paint3_linear_377_2496)"/>
<path d="M25.1249 25.8224C26.5268 23.9008 27.8448 21.895 29.1705 19.8893C30.5114 17.8908 31.8332 15.8667 33.2579 13.9012C34.6826 11.9357 36.1492 9.98119 37.7949 8.15111C39.4329 6.31736 41.2157 4.5678 43.2804 3.11838C44.3089 2.39366 45.4136 1.74581 46.5983 1.24803C47.7716 0.750246 49.0668 0.40253 50.3125 0.256123C50.8724 0.18292 51.4362 0.131678 52 0.0914157C50.1677 -0.0659716 47.7678 -0.0659716 45.0936 0.464753C34.0274 2.66085 25.4373 21.3753 19.4185 27.4073C13.3959 33.4392 7 30.2183 7 30.2183C7 30.2183 10.8208 32.6816 15.1368 33C16.9881 32.6852 18.7405 31.9129 20.2528 30.8551C22.2032 29.5338 23.7231 27.7513 25.1249 25.8224Z" fill="url(#paint4_linear_377_2496)"/>
<defs>
<linearGradient id="paint0_linear_377_2496" x1="7.50004" y1="11.0049" x2="7.50004" y2="35.4363" gradientUnits="userSpaceOnUse">
<stop stop-color="#0D0EA7"/>
<stop offset="1" stop-color="#0D0E59"/>
</linearGradient>
<linearGradient id="paint1_linear_377_2496" x1="17.1191" y1="-6.13272" x2="33.5278" y2="16.3694" gradientUnits="userSpaceOnUse">
<stop stop-color="#3CBBF2"/>
<stop offset="0.5477" stop-color="#2374F2"/>
<stop offset="1" stop-color="#0D37F2"/>
</linearGradient>
<linearGradient id="paint2_linear_377_2496" x1="12.8914" y1="-3.30071" x2="29.943" y2="19.4094" gradientUnits="userSpaceOnUse">
<stop stop-color="#3CBBF2"/>
<stop offset="0.5477" stop-color="#2374F2"/>
<stop offset="1" stop-color="#0D37F2"/>
</linearGradient>
<linearGradient id="paint3_linear_377_2496" x1="20.6541" y1="37.3373" x2="45.138" y2="2.85775" gradientUnits="userSpaceOnUse">
<stop stop-color="#0D37F2"/>
<stop offset="0.00392973" stop-color="#0D38F2"/>
<stop offset="0.364" stop-color="#2284F8"/>
<stop offset="0.6614" stop-color="#32BCFC"/>
<stop offset="0.8814" stop-color="#3BDFFE"/>
<stop offset="1" stop-color="#3FECFF"/>
</linearGradient>
<linearGradient id="paint4_linear_377_2496" x1="15.5311" y1="33.1922" x2="40.2365" y2="-1.37216" gradientUnits="userSpaceOnUse">
<stop stop-color="#0D37F2"/>
<stop offset="0.00392973" stop-color="#0D38F2"/>
<stop offset="0.364" stop-color="#2284F8"/>
<stop offset="0.6614" stop-color="#32BCFC"/>
<stop offset="0.8814" stop-color="#3BDFFE"/>
<stop offset="1" stop-color="#3FECFF"/>
</linearGradient>
</defs>
</svg>
