<svg width="240" height="86" viewBox="0 0 240 86" fill="none" xmlns="http://www.w3.org/2000/svg">
<rect x="0.563477" y="14.2681" width="78.577" height="27.3651" fill="#2C3850"/>
<line x1="3.49362" y1="15.832" x2="3.49362" y2="39.6788" stroke="#EF634A" stroke-width="1.17279"/>
<path d="M13.8272 31.8937C13.6442 31.8937 13.4511 31.8801 13.2478 31.853C13.0446 31.8327 12.8481 31.8022 12.6583 31.7615C12.4686 31.7209 12.2958 31.6768 12.1399 31.6294C11.9841 31.582 11.8621 31.5379 11.774 31.4973L12.0688 30.2369C12.245 30.3114 12.4686 30.3928 12.7396 30.4809C13.0175 30.5622 13.3596 30.6028 13.7662 30.6028C14.2338 30.6028 14.576 30.5147 14.7928 30.3386C15.0096 30.1624 15.1181 29.9252 15.1181 29.6271C15.1181 29.4441 15.0774 29.2916 14.9961 29.1697C14.9215 29.0409 14.8165 28.9393 14.681 28.8647C14.5455 28.7834 14.3828 28.7292 14.1931 28.7021C14.0102 28.6682 13.8136 28.6513 13.6036 28.6513H13.0141V27.4316H13.6849C13.834 27.4316 13.9763 27.418 14.1118 27.3909C14.2541 27.3638 14.3795 27.3198 14.4879 27.2588C14.5963 27.191 14.681 27.103 14.742 26.9945C14.8097 26.8793 14.8436 26.737 14.8436 26.5676C14.8436 26.4389 14.8165 26.3271 14.7623 26.2322C14.7081 26.1374 14.6369 26.0594 14.5489 25.9984C14.4675 25.9375 14.3693 25.8934 14.2541 25.8663C14.1457 25.8324 14.0339 25.8155 13.9187 25.8155C13.6273 25.8155 13.3563 25.8595 13.1055 25.9476C12.8616 26.0357 12.638 26.1441 12.4347 26.2729L11.896 25.165C12.0044 25.0972 12.1298 25.0261 12.2721 24.9515C12.4212 24.877 12.5838 24.8092 12.76 24.7482C12.9361 24.6873 13.1225 24.6364 13.319 24.5958C13.5223 24.5551 13.7357 24.5348 13.9593 24.5348C14.3727 24.5348 14.7284 24.5856 15.0266 24.6873C15.3315 24.7821 15.5822 24.921 15.7787 25.104C15.9752 25.2802 16.1209 25.4902 16.2158 25.7342C16.3107 25.9713 16.3581 26.2322 16.3581 26.5168C16.3581 26.7946 16.2802 27.0657 16.1243 27.33C15.9685 27.5874 15.7584 27.784 15.4941 27.9195C15.86 28.0686 16.1412 28.2922 16.3378 28.5903C16.541 28.8817 16.6427 29.234 16.6427 29.6474C16.6427 29.9726 16.5885 30.2742 16.4801 30.552C16.3716 30.823 16.2022 31.0602 15.9718 31.2635C15.7415 31.46 15.4467 31.6159 15.0876 31.731C14.7352 31.8395 14.3151 31.8937 13.8272 31.8937ZM22.3281 26.5473C22.3281 26.8048 22.2773 27.0521 22.1757 27.2893C22.074 27.5265 21.9419 27.7568 21.7792 27.9805C21.6166 28.1973 21.4337 28.4074 21.2304 28.6106C21.0271 28.8139 20.8272 29.007 20.6307 29.19C20.5291 29.2849 20.4172 29.3933 20.2953 29.5153C20.1801 29.6304 20.0683 29.749 19.9599 29.871C19.8514 29.993 19.7532 30.1082 19.6651 30.2166C19.5838 30.3182 19.533 30.4029 19.5126 30.4707H22.5416V31.7412H17.8457C17.8322 31.6667 17.8254 31.5718 17.8254 31.4566C17.8254 31.3414 17.8254 31.2601 17.8254 31.2127C17.8254 30.8874 17.8762 30.5893 17.9778 30.3182C18.0863 30.0472 18.2252 29.7965 18.3946 29.5661C18.564 29.3289 18.7537 29.1087 18.9638 28.9054C19.1806 28.7021 19.3941 28.4988 19.6041 28.2956C19.7667 28.1397 19.9192 27.994 20.0615 27.8585C20.2038 27.7162 20.3292 27.5807 20.4376 27.4519C20.546 27.3164 20.6307 27.1843 20.6917 27.0555C20.7527 26.92 20.7832 26.7845 20.7832 26.649C20.7832 26.3508 20.6985 26.1407 20.5291 26.0188C20.3596 25.8968 20.1496 25.8358 19.8989 25.8358C19.7159 25.8358 19.5431 25.8663 19.3805 25.9273C19.2246 25.9815 19.079 26.0493 18.9434 26.1306C18.8147 26.2051 18.7029 26.283 18.608 26.3644C18.5132 26.4389 18.442 26.4999 18.3946 26.5473L17.6424 25.4902C17.9406 25.2124 18.2862 24.9854 18.6792 24.8092C19.079 24.6263 19.5059 24.5348 19.9599 24.5348C20.3732 24.5348 20.7289 24.5822 21.0271 24.6771C21.3252 24.772 21.5692 24.9075 21.7589 25.0837C21.9554 25.2531 22.0977 25.4631 22.1858 25.7138C22.2807 25.9578 22.3281 26.2356 22.3281 26.5473ZM26.7227 29.6677C26.7227 29.4712 26.6787 29.2984 26.5906 29.1493C26.5025 28.9935 26.35 28.8647 26.1332 28.7631C25.9163 28.6615 25.625 28.5835 25.2591 28.5293C24.8931 28.4751 24.4324 28.448 23.8767 28.448C23.9513 27.8178 24.0122 27.1775 24.0597 26.527C24.1071 25.8765 24.1444 25.2666 24.1715 24.6974H27.9831V25.968H25.442C25.4285 26.2119 25.4115 26.4491 25.3912 26.6794C25.3776 26.9031 25.3607 27.0996 25.3404 27.269C26.3297 27.3367 27.0581 27.5705 27.5257 27.9703C28 28.3633 28.2372 28.9122 28.2372 29.6169C28.2372 29.9421 28.1796 30.2437 28.0644 30.5215C27.9492 30.7993 27.7764 31.0399 27.546 31.2432C27.3156 31.4464 27.0242 31.6057 26.6719 31.7209C26.3263 31.8361 25.9197 31.8937 25.4522 31.8937C25.2692 31.8937 25.0761 31.8801 24.8728 31.853C24.6763 31.8327 24.4832 31.8022 24.2935 31.7615C24.1105 31.7277 23.9445 31.6904 23.7954 31.6497C23.6463 31.6091 23.5311 31.5684 23.4498 31.5278L23.7243 30.2776C23.8937 30.3521 24.1173 30.4266 24.3951 30.5012C24.6729 30.5689 25.0049 30.6028 25.3912 30.6028C25.8587 30.6028 26.1975 30.5113 26.4076 30.3284C26.6177 30.1387 26.7227 29.9184 26.7227 29.6677Z" fill="white"/>
<path d="M34.1009 27.7537H33.2636L35.1025 22.4558H35.9289L34.1009 27.7537ZM36.1726 23.7365C36.2784 23.6927 36.3879 23.6435 36.501 23.5887C36.6177 23.5304 36.7309 23.4683 36.8403 23.4027C36.9498 23.3333 37.0538 23.2622 37.1523 23.1892C37.2544 23.1126 37.3457 23.0323 37.4259 22.9484H37.9951V26.7412H37.1796V24.0102C37.0702 24.0831 36.948 24.1506 36.8129 24.2127C36.6779 24.2711 36.5466 24.3221 36.4189 24.3659L36.1726 23.7365ZM40.646 23.9445C40.5037 24.1306 40.3523 24.3331 40.1918 24.552C40.0312 24.7709 39.8962 24.9953 39.7868 25.2252H40.646V23.9445ZM41.4451 22.9484V25.2252H41.8501V25.8929H41.4451V26.7412H40.646V25.8929H39.0096V25.2963C39.0899 25.1358 39.1902 24.9552 39.3106 24.7545C39.431 24.5502 39.5642 24.3422 39.7101 24.1306C39.8597 23.9153 40.0166 23.7055 40.1808 23.5012C40.345 23.2969 40.5092 23.1126 40.6734 22.9484H41.4451ZM44.2985 23.6052C43.9008 23.6052 43.6126 23.7165 43.4338 23.939C43.2586 24.1579 43.1711 24.459 43.1711 24.8421C43.1711 25.0282 43.193 25.1978 43.2367 25.3511C43.2805 25.5007 43.3462 25.6302 43.4338 25.7396C43.5213 25.8491 43.6308 25.9349 43.7621 25.9969C43.8935 26.0553 44.0467 26.0844 44.2219 26.0844C44.3167 26.0844 44.397 26.0826 44.4627 26.079C44.532 26.0753 44.5922 26.068 44.6433 26.0571V24.7381H45.4971V26.6153C45.3949 26.6555 45.2307 26.6974 45.0045 26.7412C44.7783 26.7886 44.4992 26.8124 44.1672 26.8124C43.8826 26.8124 43.6235 26.7686 43.39 26.681C43.1601 26.5934 42.9631 26.4657 42.7989 26.2979C42.6347 26.1301 42.507 25.9239 42.4158 25.6794C42.3282 25.435 42.2844 25.1559 42.2844 24.8421C42.2844 24.5246 42.3337 24.2437 42.4322 23.9992C42.5307 23.7548 42.6657 23.5486 42.8372 23.3808C43.0087 23.2093 43.2094 23.0798 43.4392 22.9922C43.6728 22.9046 43.9209 22.8608 44.1836 22.8608C44.3624 22.8608 44.5229 22.8736 44.6652 22.8991C44.8111 22.921 44.9352 22.9484 45.0374 22.9812C45.1432 23.0104 45.2289 23.0414 45.2946 23.0743C45.3639 23.1071 45.4132 23.1327 45.4424 23.1509L45.1961 23.835C45.0793 23.773 44.9443 23.7201 44.7911 23.6763C44.6415 23.6289 44.4773 23.6052 44.2985 23.6052ZM47.8239 25.6247C47.8239 25.5189 47.8002 25.4259 47.7528 25.3456C47.7054 25.2617 47.6233 25.1923 47.5065 25.1376C47.3898 25.0829 47.2329 25.0409 47.0358 25.0117C46.8388 24.9825 46.5907 24.968 46.2915 24.968C46.3316 24.6286 46.3645 24.2838 46.39 23.9335C46.4156 23.5833 46.4356 23.2549 46.4502 22.9484H48.5026V23.6325H47.1343C47.127 23.7639 47.1179 23.8916 47.107 24.0156C47.0997 24.1361 47.0906 24.2419 47.0796 24.3331C47.6123 24.3696 48.0046 24.4954 48.2563 24.7107C48.5117 24.9223 48.6394 25.2179 48.6394 25.5973C48.6394 25.7725 48.6084 25.9349 48.5464 26.0844C48.4844 26.234 48.3913 26.3636 48.2673 26.473C48.1432 26.5825 47.9863 26.6682 47.7966 26.7303C47.6105 26.7923 47.3916 26.8233 47.1398 26.8233C47.0413 26.8233 46.9373 26.816 46.8279 26.8014C46.722 26.7905 46.6181 26.774 46.5159 26.7522C46.4174 26.7339 46.328 26.7138 46.2477 26.692C46.1674 26.6701 46.1054 26.6482 46.0616 26.6263L46.2094 25.9531C46.3006 25.9932 46.421 26.0334 46.5706 26.0735C46.7202 26.11 46.899 26.1282 47.107 26.1282C47.3587 26.1282 47.5412 26.079 47.6543 25.9805C47.7674 25.8783 47.8239 25.7597 47.8239 25.6247ZM51.6789 23.9445C51.6789 24.0831 51.6516 24.2163 51.5968 24.344C51.5421 24.4717 51.4709 24.5958 51.3834 24.7162C51.2958 24.8329 51.1973 24.9461 51.0878 25.0555C50.9784 25.165 50.8707 25.269 50.7649 25.3675C50.7102 25.4186 50.65 25.4769 50.5843 25.5426C50.5223 25.6046 50.4621 25.6685 50.4037 25.7342C50.3453 25.7999 50.2924 25.8619 50.245 25.9203C50.2012 25.975 50.1738 26.0206 50.1629 26.0571H51.7939V26.7412H49.2653C49.258 26.7011 49.2544 26.65 49.2544 26.588C49.2544 26.5259 49.2544 26.4822 49.2544 26.4566C49.2544 26.2815 49.2817 26.1209 49.3365 25.975C49.3948 25.829 49.4696 25.694 49.5609 25.57C49.6521 25.4423 49.7542 25.3237 49.8673 25.2142C49.9841 25.1048 50.099 24.9953 50.2121 24.8859C50.2997 24.8019 50.3818 24.7235 50.4584 24.6505C50.5351 24.5739 50.6026 24.5009 50.6609 24.4316C50.7193 24.3586 50.7649 24.2875 50.7978 24.2181C50.8306 24.1452 50.847 24.0722 50.847 23.9992C50.847 23.8387 50.8014 23.7256 50.7102 23.6599C50.619 23.5942 50.5059 23.5614 50.3709 23.5614C50.2724 23.5614 50.1793 23.5778 50.0917 23.6106C50.0078 23.6398 49.9294 23.6763 49.8564 23.7201C49.7871 23.7602 49.7269 23.8022 49.6758 23.846C49.6247 23.8861 49.5864 23.919 49.5609 23.9445L49.1559 23.3753C49.3164 23.2257 49.5025 23.1035 49.7141 23.0086C49.9294 22.9101 50.1592 22.8608 50.4037 22.8608C50.6263 22.8608 50.8178 22.8864 50.9784 22.9375C51.1389 22.9885 51.2703 23.0615 51.3724 23.1564C51.4782 23.2476 51.5549 23.3607 51.6023 23.4957C51.6534 23.6271 51.6789 23.7767 51.6789 23.9445ZM54.0452 25.6247C54.0452 25.5189 54.0215 25.4259 53.9741 25.3456C53.9267 25.2617 53.8446 25.1923 53.7278 25.1376C53.611 25.0829 53.4541 25.0409 53.2571 25.0117C53.0601 24.9825 52.812 24.968 52.5128 24.968C52.5529 24.6286 52.5858 24.2838 52.6113 23.9335C52.6368 23.5833 52.6569 23.2549 52.6715 22.9484H54.7239V23.6325H53.3556C53.3483 23.7639 53.3392 23.8916 53.3283 24.0156C53.321 24.1361 53.3118 24.2419 53.3009 24.3331C53.8336 24.3696 54.2258 24.4954 54.4776 24.7107C54.733 24.9223 54.8607 25.2179 54.8607 25.5973C54.8607 25.7725 54.8297 25.9349 54.7677 26.0844C54.7056 26.234 54.6126 26.3636 54.4885 26.473C54.3645 26.5825 54.2076 26.6682 54.0179 26.7303C53.8318 26.7923 53.6129 26.8233 53.3611 26.8233C53.2626 26.8233 53.1586 26.816 53.0491 26.8014C52.9433 26.7905 52.8393 26.774 52.7372 26.7522C52.6387 26.7339 52.5493 26.7138 52.469 26.692C52.3887 26.6701 52.3267 26.6482 52.2829 26.6263L52.4307 25.9531C52.5219 25.9932 52.6423 26.0334 52.7919 26.0735C52.9415 26.11 53.1203 26.1282 53.3283 26.1282C53.58 26.1282 53.7625 26.079 53.8756 25.9805C53.9887 25.8783 54.0452 25.7597 54.0452 25.6247Z" fill="#656F85"/>
<path d="M119.678 79.634C119.744 79.7544 119.819 79.904 119.903 80.0827C119.99 80.2579 120.08 80.4494 120.171 80.6574C120.266 80.8617 120.359 81.0715 120.45 81.2868C120.541 81.5021 120.627 81.7046 120.707 81.8943C120.787 81.7046 120.873 81.5021 120.964 81.2868C121.056 81.0715 121.147 80.8617 121.238 80.6574C121.333 80.4494 121.422 80.2579 121.506 80.0827C121.594 79.904 121.67 79.7544 121.736 79.634H122.513C122.55 79.8857 122.583 80.1685 122.612 80.4823C122.645 80.7924 122.672 81.1171 122.694 81.4565C122.719 81.7921 122.741 82.1297 122.76 82.469C122.781 82.8083 122.8 83.1276 122.814 83.4268H121.982C121.971 83.0582 121.957 82.6569 121.939 82.2227C121.92 81.7885 121.893 81.3507 121.857 80.9092C121.791 81.0624 121.718 81.2321 121.638 81.4182C121.557 81.6042 121.477 81.7903 121.397 81.9764C121.32 82.1625 121.245 82.3413 121.172 82.5128C121.099 82.6806 121.037 82.8247 120.986 82.9451H120.39C120.339 82.8247 120.277 82.6806 120.204 82.5128C120.131 82.3413 120.054 82.1625 119.974 81.9764C119.897 81.7903 119.819 81.6042 119.738 81.4182C119.658 81.2321 119.585 81.0624 119.52 80.9092C119.483 81.3507 119.456 81.7885 119.437 82.2227C119.419 82.6569 119.405 83.0582 119.394 83.4268H118.562C118.576 83.1276 118.593 82.8083 118.611 82.469C118.633 82.1297 118.655 81.7921 118.677 81.4565C118.702 81.1171 118.73 80.7924 118.759 80.4823C118.792 80.1685 118.826 79.8857 118.863 79.634H119.678ZM125.066 83.5034C124.8 83.5034 124.57 83.4669 124.377 83.3939C124.183 83.3173 124.023 83.2133 123.895 83.082C123.771 82.947 123.678 82.7882 123.616 82.6058C123.558 82.4197 123.528 82.2154 123.528 81.9928L123.528 79.634H124.382V81.9217C124.382 82.0749 124.399 82.2063 124.431 82.3157C124.468 82.4215 124.515 82.5091 124.574 82.5784C124.636 82.6441 124.709 82.6915 124.793 82.7207C124.88 82.7499 124.975 82.7645 125.077 82.7645C125.285 82.7645 125.453 82.7007 125.581 82.573C125.712 82.4453 125.778 82.2282 125.778 81.9217V79.634H126.632V81.9928C126.632 82.2154 126.601 82.4197 126.538 82.6058C126.476 82.7919 126.382 82.9524 126.254 83.0874C126.126 83.2188 125.964 83.3209 125.767 83.3939C125.57 83.4669 125.336 83.5034 125.066 83.5034Z" fill="#656F85"/>
<path d="M173.868 79.6335V80.3614H172.724V83.4263H171.871V80.3614H170.727V79.6335H173.868ZM175.9 83.5029C175.634 83.5029 175.404 83.4664 175.21 83.3934C175.017 83.3168 174.857 83.2128 174.729 83.0815C174.605 82.9465 174.512 82.7878 174.45 82.6053C174.391 82.4192 174.362 82.2149 174.362 81.9923V79.6335H175.216V81.9212C175.216 82.0744 175.232 82.2058 175.265 82.3152C175.302 82.4211 175.349 82.5086 175.407 82.578C175.47 82.6436 175.542 82.6911 175.626 82.7202C175.714 82.7494 175.809 82.764 175.911 82.764C176.119 82.764 176.287 82.7002 176.415 82.5725C176.546 82.4448 176.612 82.2277 176.612 81.9212V79.6335H177.465V81.9923C177.465 82.2149 177.434 82.4192 177.372 82.6053C177.31 82.7914 177.215 82.9519 177.088 83.0869C176.96 83.2183 176.798 83.3205 176.601 83.3934C176.404 83.4664 176.17 83.5029 175.9 83.5029Z" fill="#656F85"/>
<path d="M200.209 65.5602C200.274 65.6806 200.349 65.8302 200.433 66.009C200.521 66.1841 200.61 66.3757 200.701 66.5837C200.796 66.788 200.889 66.9978 200.98 67.2131C201.071 67.4283 201.157 67.6308 201.237 67.8206C201.318 67.6308 201.403 67.4283 201.495 67.2131C201.586 66.9978 201.677 66.788 201.768 66.5837C201.863 66.3757 201.953 66.1841 202.037 66.009C202.124 65.8302 202.201 65.6806 202.266 65.5602H203.044C203.08 65.812 203.113 66.0948 203.142 66.4085C203.175 66.7187 203.202 67.0434 203.224 67.3827C203.25 67.7184 203.272 68.0559 203.29 68.3952C203.312 68.7346 203.33 69.0538 203.345 69.353H202.513C202.502 68.9845 202.487 68.5832 202.469 68.149C202.451 67.7148 202.423 67.2769 202.387 66.8354C202.321 66.9887 202.248 67.1583 202.168 67.3444C202.088 67.5305 202.007 67.7166 201.927 67.9027C201.85 68.0888 201.776 68.2675 201.703 68.439C201.63 68.6069 201.568 68.751 201.517 68.8714H200.92C200.869 68.751 200.807 68.6069 200.734 68.439C200.661 68.2675 200.584 68.0888 200.504 67.9027C200.427 67.7166 200.349 67.5305 200.269 67.3444C200.188 67.1583 200.116 66.9887 200.05 66.8354C200.013 67.2769 199.986 67.7148 199.968 68.149C199.949 68.5832 199.935 68.9845 199.924 69.353H199.092C199.107 69.0538 199.123 68.7346 199.141 68.3952C199.163 68.0559 199.185 67.7184 199.207 67.3827C199.233 67.0434 199.26 66.7187 199.289 66.4085C199.322 66.0948 199.357 65.812 199.393 65.5602H200.209ZM206.653 69.353C206.613 69.2217 206.567 69.0867 206.516 68.948C206.469 68.8094 206.421 68.6707 206.374 68.5321H204.896C204.849 68.6707 204.799 68.8094 204.748 68.948C204.701 69.0867 204.657 69.2217 204.617 69.353H203.73C203.873 68.9444 204.008 68.5667 204.135 68.2201C204.263 67.8735 204.387 67.5469 204.507 67.2404C204.631 66.934 204.752 66.6439 204.869 66.3702C204.989 66.0929 205.113 65.8229 205.241 65.5602H206.056C206.18 65.8229 206.303 66.0929 206.423 66.3702C206.543 66.6439 206.664 66.934 206.784 67.2404C206.908 67.5469 207.034 67.8735 207.162 68.2201C207.29 68.5667 207.425 68.9444 207.567 69.353H206.653ZM205.629 66.4195C205.611 66.4742 205.584 66.549 205.547 66.6439C205.511 66.7387 205.469 66.8482 205.421 66.9723C205.374 67.0963 205.321 67.2331 205.263 67.3827C205.208 67.5323 205.151 67.6892 205.093 67.8534H206.171C206.113 67.6892 206.056 67.5323 206.002 67.3827C205.947 67.2331 205.894 67.0963 205.843 66.9723C205.795 66.8482 205.753 66.7387 205.717 66.6439C205.68 66.549 205.651 66.4742 205.629 66.4195ZM209.169 65.5164C209.738 65.5164 210.174 65.6186 210.477 65.8229C210.78 66.0236 210.931 66.3374 210.931 66.7643C210.931 67.0306 210.869 67.2477 210.745 67.4156C210.625 67.5798 210.449 67.7093 210.22 67.8042C210.296 67.899 210.377 68.0085 210.46 68.1325C210.544 68.2529 210.626 68.3807 210.707 68.5157C210.791 68.647 210.871 68.7857 210.948 68.9316C211.024 69.0739 211.095 69.2144 211.161 69.353H210.203C210.134 69.229 210.063 69.1031 209.99 68.9754C209.92 68.8477 209.847 68.7236 209.771 68.6032C209.698 68.4828 209.625 68.3697 209.552 68.2639C209.479 68.1544 209.406 68.0559 209.333 67.9684H208.912V69.353H208.058V65.615C208.244 65.5785 208.435 65.5529 208.632 65.5383C208.833 65.5237 209.012 65.5164 209.169 65.5164ZM209.218 66.2443C209.156 66.2443 209.099 66.2462 209.048 66.2498C209.001 66.2535 208.955 66.2571 208.912 66.2608V67.2897H209.152C209.473 67.2897 209.703 67.2496 209.842 67.1693C209.981 67.089 210.05 66.9522 210.05 66.7588C210.05 66.5727 209.979 66.4414 209.836 66.3648C209.698 66.2845 209.492 66.2443 209.218 66.2443Z" fill="#202A3E"/>
<path d="M198.555 4.78922C198.413 4.97531 198.262 5.17781 198.101 5.39673C197.941 5.61565 197.806 5.84004 197.696 6.06991H198.555V4.78922ZM199.355 3.79313V6.06991H199.76V6.73762H199.355V7.58594H198.555V6.73762H196.919V6.14106C196.999 5.98052 197.1 5.79991 197.22 5.59923C197.34 5.3949 197.474 5.18693 197.62 4.97531C197.769 4.76003 197.926 4.55023 198.09 4.34591C198.254 4.14158 198.419 3.95732 198.583 3.79313H199.355ZM201.891 6.46944C201.891 6.36363 201.867 6.27059 201.819 6.19032C201.772 6.1064 201.69 6.03707 201.573 5.98234C201.456 5.92761 201.299 5.88565 201.102 5.85646C200.905 5.82727 200.657 5.81268 200.358 5.81268C200.398 5.47335 200.431 5.12855 200.457 4.77828C200.482 4.428 200.502 4.09962 200.517 3.79313H202.569V4.47726H201.201C201.194 4.60861 201.184 4.73632 201.174 4.86037C201.166 4.98078 201.157 5.08659 201.146 5.17781C201.679 5.21429 202.071 5.34017 202.323 5.55545C202.578 5.76707 202.706 6.06261 202.706 6.44208C202.706 6.61721 202.675 6.77958 202.613 6.92917C202.551 7.07877 202.458 7.2083 202.334 7.31776C202.21 7.42722 202.053 7.51296 201.863 7.57499C201.677 7.63702 201.458 7.66803 201.206 7.66803C201.108 7.66803 201.004 7.66074 200.894 7.64614C200.789 7.63519 200.685 7.61878 200.582 7.59688C200.484 7.57864 200.395 7.55857 200.314 7.53668C200.234 7.51479 200.172 7.4929 200.128 7.471L200.276 6.79782C200.367 6.83796 200.488 6.87809 200.637 6.91823C200.787 6.95472 200.966 6.97296 201.174 6.97296C201.425 6.97296 201.608 6.9237 201.721 6.82519C201.834 6.72302 201.891 6.60444 201.891 6.46944ZM204.213 7.15357C204.213 7.31776 204.16 7.44364 204.054 7.53121C203.952 7.61513 203.835 7.65709 203.704 7.65709C203.573 7.65709 203.454 7.61513 203.348 7.53121C203.246 7.44364 203.195 7.31776 203.195 7.15357C203.195 6.98938 203.246 6.86532 203.348 6.7814C203.454 6.69383 203.573 6.65005 203.704 6.65005C203.835 6.65005 203.952 6.69383 204.054 6.7814C204.16 6.86532 204.213 6.98938 204.213 7.15357ZM205.877 5.80173C205.797 5.80173 205.711 5.80903 205.62 5.82362C205.529 5.83822 205.458 5.85829 205.407 5.88383C205.407 5.89842 205.405 5.92031 205.401 5.9495C205.401 5.97869 205.401 6.00423 205.401 6.02613C205.401 6.15748 205.41 6.28153 205.429 6.39829C205.447 6.51505 205.478 6.61721 205.522 6.70478C205.565 6.79235 205.624 6.86167 205.697 6.91276C205.77 6.96019 205.861 6.9839 205.97 6.9839C206.062 6.9839 206.138 6.96566 206.2 6.92917C206.266 6.88904 206.319 6.83978 206.359 6.7814C206.403 6.72302 206.434 6.65917 206.452 6.58985C206.474 6.51687 206.485 6.44755 206.485 6.38187C206.485 6.19579 206.437 6.05349 206.343 5.95498C206.251 5.85281 206.096 5.80173 205.877 5.80173ZM205.981 5.16686C206.218 5.16686 206.419 5.1997 206.583 5.26538C206.751 5.3274 206.888 5.41315 206.994 5.52261C207.1 5.63207 207.176 5.75977 207.224 5.90572C207.271 6.05167 207.295 6.20674 207.295 6.37093C207.295 6.51687 207.267 6.66647 207.213 6.81971C207.162 6.97296 207.081 7.11161 206.972 7.23566C206.866 7.35972 206.729 7.46188 206.561 7.54215C206.397 7.62242 206.202 7.66256 205.976 7.66256C205.52 7.66256 205.173 7.51844 204.936 7.23019C204.699 6.94195 204.58 6.54424 204.58 6.03707C204.58 5.6722 204.637 5.3493 204.75 5.06835C204.863 4.7874 205.024 4.55206 205.232 4.36233C205.443 4.16895 205.697 4.023 205.992 3.92448C206.291 3.82232 206.627 3.76942 206.999 3.76577C207.007 3.87888 207.014 3.99016 207.021 4.09962C207.029 4.20543 207.036 4.31672 207.043 4.43348C206.857 4.43712 206.682 4.45537 206.518 4.48821C206.357 4.5174 206.209 4.56483 206.074 4.6305C205.943 4.69618 205.828 4.78193 205.73 4.88774C205.631 4.9899 205.554 5.11578 205.5 5.26538C205.58 5.22889 205.662 5.20335 205.746 5.18875C205.83 5.17416 205.908 5.16686 205.981 5.16686ZM211.479 7.58594C211.403 7.46188 211.312 7.32871 211.206 7.18641C211.104 7.04046 210.991 6.89634 210.867 6.75404C210.746 6.60809 210.62 6.46944 210.489 6.33809C210.358 6.20309 210.226 6.0845 210.095 5.98234V7.58594H209.241V3.79313H210.095V5.22706C210.317 4.99355 210.54 4.75091 210.763 4.49915C210.989 4.24374 211.199 4.0084 211.392 3.79313H212.404C212.145 4.09962 211.885 4.39516 211.622 4.67976C211.363 4.96436 211.089 5.25078 210.801 5.53903C211.104 5.79079 211.396 6.08998 211.677 6.4366C211.961 6.78323 212.233 7.16634 212.492 7.58594H211.479Z" fill="#202A3E"/>
<path d="M234.854 79.6335V80.3614H233.71V83.4263H232.856V80.3614H231.712V79.6335H234.854ZM237.69 79.6335H238.544V83.4263H237.69V81.8172H236.256V83.4263H235.402V79.6335H236.256L236.256 81.0838H237.69V79.6335Z" fill="#656F85"/>
<path d="M34.1954 31.1146C34.7609 31.1146 35.1951 31.2149 35.498 31.4156C35.8008 31.6126 35.9522 31.9374 35.9522 32.3898C35.9522 32.8459 35.799 33.1761 35.4925 33.3804C35.186 33.5811 34.7481 33.6814 34.179 33.6814H33.9108V34.9512H33.057V31.2131C33.2431 31.1766 33.4401 31.1511 33.6481 31.1365C33.856 31.1219 34.0385 31.1146 34.1954 31.1146ZM34.2501 31.8425C34.1881 31.8425 34.126 31.8443 34.064 31.848C34.0056 31.8516 33.9546 31.8553 33.9108 31.8589V32.9535H34.179C34.4745 32.9535 34.6971 32.9134 34.8467 32.8331C34.9963 32.7528 35.0711 32.6032 35.0711 32.3843C35.0711 32.2785 35.051 32.1909 35.0109 32.1216C34.9744 32.0523 34.9196 31.9976 34.8467 31.9574C34.7773 31.9136 34.6916 31.8845 34.5894 31.8699C34.4873 31.8516 34.3742 31.8425 34.2501 31.8425ZM38.2594 32.7948C38.1864 32.7766 38.1007 32.7583 38.0022 32.7401C37.9036 32.7182 37.7978 32.7072 37.6847 32.7072C37.6336 32.7072 37.5716 32.7127 37.4986 32.7237C37.4293 32.7309 37.3764 32.7401 37.3399 32.751V34.9512H36.5244V32.2256C36.6704 32.1745 36.8419 32.1271 37.0389 32.0833C37.2396 32.0359 37.4622 32.0122 37.7066 32.0122C37.7504 32.0122 37.8033 32.0158 37.8653 32.0231C37.9274 32.0268 37.9894 32.0341 38.0514 32.045C38.1134 32.0523 38.1755 32.0632 38.2375 32.0778C38.2995 32.0888 38.3524 32.1034 38.3962 32.1216L38.2594 32.7948ZM41.4727 33.5063C41.4727 33.7325 41.4398 33.9405 41.3741 34.1302C41.3085 34.3163 41.2136 34.4768 41.0895 34.6118C40.9655 34.7432 40.8159 34.8454 40.6408 34.9183C40.4693 34.9913 40.2759 35.0278 40.0606 35.0278C39.849 35.0278 39.6556 34.9913 39.4805 34.9183C39.309 34.8454 39.1612 34.7432 39.0372 34.6118C38.9131 34.4768 38.8164 34.3163 38.7471 34.1302C38.6778 33.9405 38.6431 33.7325 38.6431 33.5063C38.6431 33.2801 38.6778 33.0739 38.7471 32.8878C38.8201 32.7018 38.9186 32.543 39.0426 32.4117C39.1703 32.2803 39.3199 32.1782 39.4914 32.1052C39.6666 32.0322 39.8563 31.9957 40.0606 31.9957C40.2686 31.9957 40.4583 32.0322 40.6298 32.1052C40.8049 32.1782 40.9545 32.2803 41.0786 32.4117C41.2027 32.543 41.2993 32.7018 41.3687 32.8878C41.438 33.0739 41.4727 33.2801 41.4727 33.5063ZM40.6408 33.5063C40.6408 33.2545 40.5897 33.0575 40.4875 32.9152C40.389 32.7693 40.2467 32.6963 40.0606 32.6963C39.8745 32.6963 39.7304 32.7693 39.6282 32.9152C39.5261 33.0575 39.475 33.2545 39.475 33.5063C39.475 33.7581 39.5261 33.9587 39.6282 34.1083C39.7304 34.2543 39.8745 34.3272 40.0606 34.3272C40.2467 34.3272 40.389 34.2543 40.4875 34.1083C40.5897 33.9587 40.6408 33.7581 40.6408 33.5063ZM42.7994 33.4899C42.7994 33.7416 42.856 33.9441 42.9691 34.0974C43.0822 34.2506 43.25 34.3272 43.4726 34.3272C43.5456 34.3272 43.6131 34.3254 43.6751 34.3218C43.7371 34.3145 43.7882 34.3072 43.8284 34.2999V32.8167C43.7773 32.7839 43.7098 32.7565 43.6259 32.7346C43.5456 32.7127 43.4635 32.7018 43.3796 32.7018C42.9928 32.7018 42.7994 32.9645 42.7994 33.4899ZM44.6438 34.8581C44.5709 34.88 44.4869 34.9019 44.3921 34.9238C44.2972 34.9421 44.1969 34.9585 44.0911 34.9731C43.9889 34.9877 43.8831 34.9986 43.7736 35.0059C43.6678 35.0168 43.5657 35.0223 43.4671 35.0223C43.23 35.0223 43.0184 34.9877 42.8323 34.9183C42.6462 34.849 42.4893 34.7505 42.3616 34.6228C42.2339 34.4914 42.1354 34.3345 42.066 34.1521C42.0004 33.966 41.9675 33.7581 41.9675 33.5282C41.9675 33.2947 41.9967 33.0849 42.0551 32.8988C42.1135 32.7091 42.1974 32.5485 42.3069 32.4172C42.4163 32.2858 42.5495 32.1855 42.7064 32.1161C42.8669 32.0468 43.0494 32.0122 43.2537 32.0122C43.3668 32.0122 43.4671 32.0231 43.5547 32.045C43.6459 32.0669 43.7371 32.0979 43.8284 32.138V30.8355L44.6438 30.7041V34.8581ZM47.8648 34.8527C47.7262 34.8928 47.5474 34.9293 47.3284 34.9621C47.1095 34.9986 46.8797 35.0168 46.6388 35.0168C46.3944 35.0168 46.1901 34.984 46.0259 34.9183C45.8653 34.8527 45.7376 34.7614 45.6428 34.6447C45.5479 34.5243 45.4804 34.382 45.4403 34.2178C45.4001 34.0536 45.38 33.873 45.38 33.676V32.0724H46.1955V33.5774C46.1955 33.8401 46.2302 34.0299 46.2995 34.1466C46.3688 34.2634 46.4984 34.3218 46.6881 34.3218C46.7465 34.3218 46.8085 34.3199 46.8742 34.3163C46.9399 34.309 46.9982 34.3017 47.0493 34.2944V32.0724H47.8648V34.8527ZM48.4935 33.5118C48.4935 33.3038 48.5263 33.1086 48.592 32.9262C48.6613 32.7401 48.7598 32.5795 48.8875 32.4445C49.0152 32.3059 49.1703 32.1964 49.3527 32.1161C49.5352 32.0359 49.7431 31.9957 49.9767 31.9957C50.1299 31.9957 50.2704 32.0103 50.3981 32.0395C50.5258 32.0651 50.6498 32.1034 50.7703 32.1545L50.6006 32.8057C50.524 32.7766 50.44 32.751 50.3488 32.7291C50.2576 32.7072 50.1554 32.6963 50.0423 32.6963C49.8015 32.6963 49.6209 32.7711 49.5005 32.9207C49.3838 33.0703 49.3254 33.2673 49.3254 33.5118C49.3254 33.7708 49.3801 33.9715 49.4896 34.1138C49.6027 34.2561 49.7979 34.3272 50.0752 34.3272C50.1737 34.3272 50.2795 34.3181 50.3926 34.2999C50.5057 34.2816 50.6097 34.2524 50.7046 34.2123L50.8195 34.88C50.7246 34.9202 50.6061 34.9548 50.4638 34.984C50.3215 35.0132 50.1646 35.0278 49.9931 35.0278C49.7304 35.0278 49.5042 34.9895 49.3144 34.9129C49.1247 34.8326 48.9678 34.725 48.8437 34.59C48.7233 34.455 48.6339 34.2962 48.5756 34.1138C48.5208 33.9277 48.4935 33.727 48.4935 33.5118ZM51.3394 31.3554L52.1549 31.224V32.0724H53.1346V32.751H52.1549V33.7635C52.1549 33.935 52.1841 34.0718 52.2425 34.174C52.3045 34.2762 52.4268 34.3272 52.6092 34.3272C52.6968 34.3272 52.7861 34.3199 52.8774 34.3054C52.9722 34.2871 53.058 34.2634 53.1346 34.2342L53.2495 34.8691C53.151 34.9092 53.0416 34.9439 52.9212 34.9731C52.8007 35.0023 52.653 35.0168 52.4778 35.0168C52.2553 35.0168 52.071 34.9877 51.9251 34.9293C51.7791 34.8673 51.6624 34.7833 51.5748 34.6775C51.4872 34.5681 51.4252 34.4367 51.3887 34.2835C51.3559 34.1302 51.3394 33.9606 51.3394 33.7745V31.3554ZM54.6251 34.3656C54.7747 34.3656 54.8805 34.351 54.9425 34.3218C55.0046 34.2926 55.0356 34.236 55.0356 34.1521C55.0356 34.0864 54.9954 34.0299 54.9152 33.9824C54.8349 33.9314 54.7127 33.8748 54.5485 33.8128C54.4208 33.7654 54.304 33.7161 54.1982 33.665C54.096 33.6139 54.0085 33.5537 53.9355 33.4844C53.8625 33.4114 53.806 33.3257 53.7658 33.2272C53.7257 33.1287 53.7056 33.0101 53.7056 32.8714C53.7056 32.6014 53.806 32.388 54.0066 32.2311C54.2073 32.0742 54.4828 31.9957 54.8331 31.9957C55.0082 31.9957 55.176 32.0122 55.3366 32.045C55.4971 32.0742 55.6248 32.107 55.7197 32.1435L55.5774 32.7784C55.4825 32.7455 55.3786 32.7164 55.2654 32.6908C55.156 32.6653 55.0319 32.6525 54.8933 32.6525C54.6379 32.6525 54.5102 32.7237 54.5102 32.8659C54.5102 32.8988 54.5156 32.928 54.5266 32.9535C54.5375 32.9791 54.5594 33.0046 54.5923 33.0301C54.6251 33.052 54.6689 33.0776 54.7236 33.1068C54.782 33.1323 54.855 33.1615 54.9425 33.1943C55.1213 33.26 55.2691 33.3257 55.3858 33.3914C55.5026 33.4534 55.5938 33.5227 55.6595 33.5993C55.7288 33.6723 55.7763 33.7544 55.8018 33.8456C55.831 33.9368 55.8456 34.0426 55.8456 34.1631C55.8456 34.4477 55.7379 34.6629 55.5227 34.8089C55.3111 34.9548 55.01 35.0278 54.6196 35.0278C54.3642 35.0278 54.1508 35.0059 53.9793 34.9621C53.8114 34.9183 53.6947 34.8818 53.629 34.8527L53.7658 34.1904C53.9045 34.2452 54.0468 34.2889 54.1927 34.3218C54.3387 34.351 54.4828 34.3656 54.6251 34.3656ZM57.8246 31.1584H58.6783V34.9512H57.8246V31.1584ZM59.5015 32.1709C59.6402 32.1307 59.819 32.0943 60.0379 32.0614C60.2568 32.0249 60.4867 32.0067 60.7275 32.0067C60.9719 32.0067 61.1744 32.0395 61.335 32.1052C61.4992 32.1672 61.6287 32.2566 61.7236 32.3734C61.8184 32.4901 61.8859 32.6288 61.9261 32.7893C61.9662 32.9499 61.9863 33.1287 61.9863 33.3257V34.9512H61.1708V33.4242C61.1708 33.1615 61.1361 32.9754 61.0668 32.8659C60.9975 32.7565 60.868 32.7018 60.6782 32.7018C60.6198 32.7018 60.5578 32.7054 60.4921 32.7127C60.4265 32.7164 60.3681 32.7218 60.317 32.7291V34.9512H59.5015V32.1709ZM64.5688 33.5337C64.5688 33.2819 64.5123 33.0812 64.3991 32.9316C64.286 32.7784 64.1182 32.7018 63.8956 32.7018C63.8227 32.7018 63.7552 32.7054 63.6931 32.7127C63.6311 32.7164 63.58 32.7218 63.5399 32.7291V34.2014C63.591 34.2342 63.6566 34.2616 63.7369 34.2835C63.8208 34.3054 63.9048 34.3163 63.9887 34.3163C64.3754 34.3163 64.5688 34.0554 64.5688 33.5337ZM65.4007 33.5118C65.4007 33.7343 65.3733 33.9368 65.3186 34.1193C65.2639 34.3017 65.1836 34.4586 65.0778 34.59C64.972 34.7213 64.8406 34.8235 64.6837 34.8964C64.5269 34.9694 64.3462 35.0059 64.1419 35.0059C64.0288 35.0059 63.923 34.995 63.8245 34.9731C63.726 34.9512 63.6311 34.9202 63.5399 34.88V35.9637H62.7244V32.1709C62.7974 32.149 62.8813 32.1289 62.9762 32.1107C63.071 32.0888 63.1695 32.0705 63.2717 32.0559C63.3775 32.0413 63.4833 32.0304 63.5891 32.0231C63.6986 32.0122 63.8026 32.0067 63.9011 32.0067C64.1383 32.0067 64.3499 32.0432 64.536 32.1161C64.7221 32.1855 64.879 32.2858 65.0067 32.4172C65.1344 32.5449 65.231 32.7018 65.2967 32.8878C65.366 33.0739 65.4007 33.2819 65.4007 33.5118ZM68.4848 34.8527C68.3462 34.8928 68.1674 34.9293 67.9485 34.9621C67.7296 34.9986 67.4997 35.0168 67.2589 35.0168C67.0144 35.0168 66.8101 34.984 66.6459 34.9183C66.4854 34.8527 66.3577 34.7614 66.2628 34.6447C66.1679 34.5243 66.1004 34.382 66.0603 34.2178C66.0202 34.0536 66.0001 33.873 66.0001 33.676V32.0724H66.8156V33.5774C66.8156 33.8401 66.8502 34.0299 66.9196 34.1466C66.9889 34.2634 67.1184 34.3218 67.3081 34.3218C67.3665 34.3218 67.4286 34.3199 67.4942 34.3163C67.5599 34.309 67.6183 34.3017 67.6694 34.2944V32.0724H68.4848V34.8527ZM69.223 31.3554L70.0385 31.224V32.0724H71.0181V32.751H70.0385V33.7635C70.0385 33.935 70.0676 34.0718 70.126 34.174C70.1881 34.2762 70.3103 34.3272 70.4927 34.3272C70.5803 34.3272 70.6697 34.3199 70.7609 34.3054C70.8558 34.2871 70.9415 34.2634 71.0181 34.2342L71.1331 34.8691C71.0345 34.9092 70.9251 34.9439 70.8047 34.9731C70.6843 35.0023 70.5365 35.0168 70.3614 35.0168C70.1388 35.0168 69.9545 34.9877 69.8086 34.9293C69.6626 34.8673 69.5459 34.7833 69.4583 34.6775C69.3707 34.5681 69.3087 34.4367 69.2722 34.2835C69.2394 34.1302 69.223 33.9606 69.223 33.7745V31.3554Z" fill="#ABB4C9"/>
</svg>
