<svg width="108" height="107" viewBox="0 0 108 107" fill="none" xmlns="http://www.w3.org/2000/svg">
<circle cx="53.5312" cy="53.5" r="53.5" fill="#0D37F2" fill-opacity="0.07"/>
<g clip-path="url(#clip0_377_3832)">
<path d="M58.3953 33.4434C57.3066 33.5273 56.2395 33.8361 55.2482 34.348C54.4601 34.7569 53.8832 35.174 53.2684 35.7861C52.4586 36.5932 51.9197 37.3975 51.4782 38.4538C51.1072 39.3421 50.9176 40.2413 50.8824 41.284C50.8418 42.5515 51.1099 43.8894 51.6055 44.8753C51.7843 45.2382 51.833 45.4061 51.8141 45.6282C51.7924 45.9207 51.7166 46.0696 51.4078 46.4434C51.2534 46.6303 50.6684 47.3371 50.1051 48.0142C49.5418 48.6913 48.7943 49.5932 48.4422 50.0184C48.0901 50.4436 47.4157 51.2534 46.9472 51.8194C46.4759 52.3855 45.8476 53.1411 45.5524 53.4986C44.4095 54.8771 44.098 55.2536 43.5861 55.8684C42.7249 56.903 42.7709 56.8136 42.7086 57.553C42.687 57.8265 42.6626 58.1082 42.6545 58.184C42.5624 59.2511 42.5651 59.5165 42.6761 59.7332C42.8197 60.0121 43.0418 60.1936 43.3316 60.2694C43.5564 60.3263 43.6484 60.3209 44.0005 60.2315C44.5747 60.0825 46.2024 59.6005 46.3053 59.5463C46.4489 59.4759 46.6086 59.308 46.9932 58.8313C47.3453 58.3953 47.4645 58.295 47.7299 58.2084C47.8653 58.165 47.9357 58.165 48.6778 58.1948C49.1193 58.2138 49.5661 58.2328 49.6718 58.2409C49.9155 58.2598 50.0347 58.2165 50.097 58.0811C50.1214 58.0296 50.143 57.9673 50.143 57.943C50.143 57.9213 50.0889 57.6803 50.0211 57.4094C49.8911 56.8786 49.883 56.8136 49.9291 56.5942C49.9886 56.318 50.1403 56.0932 50.3678 55.9415C50.5872 55.7953 50.7632 55.7546 51.1424 55.7655C51.4295 55.7736 51.4701 55.7682 51.5216 55.7221C51.6191 55.6328 51.6272 55.5298 51.5595 55.2319C51.527 55.083 51.4972 54.8853 51.4972 54.7905C51.4972 54.3382 51.8303 53.913 52.2745 53.7965C52.3882 53.7667 52.5805 53.7559 53.0084 53.7559C53.5853 53.7559 53.5853 53.7559 53.6503 53.6882C53.7072 53.634 53.7261 53.5798 53.7234 53.485C53.7234 53.4769 53.6314 53.0923 53.5176 52.6319C53.2874 51.6867 53.2684 51.5188 53.3686 51.2507C53.4309 51.08 53.4255 51.0882 54.2949 50.0265C54.6497 49.5905 54.9747 49.2086 55.018 49.1788C55.0614 49.149 55.167 49.0894 55.2536 49.0488C55.3891 48.9865 55.4432 48.9757 55.6545 48.9784C55.8657 48.9784 55.9361 48.9919 56.1691 49.0786C56.7811 49.3007 57.4907 49.4686 58.1461 49.5444C58.5524 49.5905 59.3811 49.5986 59.7874 49.558C60.5945 49.4767 61.5316 49.2384 62.1897 48.9432C63.1376 48.5207 63.8824 48.0196 64.6001 47.3263C65.5589 46.3946 66.2603 45.2517 66.6747 43.9517C66.9103 43.2096 67.0105 42.6003 67.0349 41.785C67.0755 40.3713 66.802 39.1309 66.1709 37.8715C65.047 35.6344 62.9426 34.0473 60.4482 33.5653C59.8741 33.4542 58.9532 33.4 58.3953 33.4434ZM59.4353 36.7503C60.0041 36.8071 60.5078 36.948 61.017 37.1944C62.3305 37.8282 63.2568 38.9738 63.6197 40.4119C64.0503 42.1128 63.4978 43.903 62.1734 45.0973C61.5045 45.6986 60.608 46.1238 59.6872 46.27C59.2972 46.3323 58.6011 46.3323 58.2057 46.27C56.5239 46.0073 55.0586 44.813 54.4682 43.2205C54.0701 42.1534 54.0566 41.0728 54.4249 39.984C54.8393 38.7571 55.6789 37.8065 56.8651 37.2215C57.6966 36.8098 58.5334 36.6582 59.4353 36.7503Z" fill="#0D37F2"/>
<path d="M46.7579 37.9311C44.2392 38.1478 41.9615 38.9305 39.8381 40.3172C38.4217 41.2407 37.1 42.4838 36.0627 43.8705C34.0206 46.6005 32.9617 49.8884 33.0348 53.2684C33.07 54.8961 33.3219 56.3342 33.8256 57.8157C34.3294 59.2944 34.9279 60.459 35.8271 61.7184C37.2029 63.6467 39.0608 65.2474 41.1923 66.3388C42.514 67.0159 43.7815 67.4601 45.2142 67.7417C46.1675 67.9286 46.8121 67.999 47.8142 68.0207C49.2035 68.0505 50.4629 67.9124 51.7142 67.5928C53.8185 67.0538 55.671 66.1303 57.3475 64.7815C57.5344 64.6326 57.6915 64.5107 57.6996 64.5107C57.7077 64.5107 58.2304 65.0713 58.8642 65.7592C59.4979 66.4445 60.3727 67.3897 60.8115 67.8609C61.2475 68.3349 61.735 68.8603 61.8948 69.0336C62.0519 69.2042 62.6342 69.8326 63.184 70.4257C63.7365 71.0188 64.5083 71.853 64.901 72.2782C66.5558 74.0711 66.7698 74.2661 67.3819 74.5667C68.0319 74.889 68.5085 75.0028 69.21 75.0001C69.5621 75.0001 69.7219 74.9892 69.9602 74.9405C70.7565 74.7807 71.4335 74.4313 72.005 73.8815C72.9665 72.9607 73.4188 71.6688 73.2292 70.3932C73.1073 69.5672 72.7525 68.844 72.1865 68.259C71.8831 67.9476 71.7558 67.8501 70.8892 67.2786C70.5398 67.0484 69.5946 66.4228 68.7902 65.892C65.8219 63.923 63.3952 62.3169 62.2306 61.5478C61.5725 61.1117 61.0335 60.7488 61.0335 60.738C61.0308 60.7299 61.0877 60.6242 61.1581 60.5078C61.4994 59.9309 62.0167 58.8367 62.2875 58.1055C62.6369 57.1711 62.9483 55.9144 63.0729 54.9205C63.2165 53.8074 63.2273 52.5317 63.1 51.4674C63.081 51.2886 63.0621 51.1288 63.0621 51.1126C63.0621 51.0963 62.9917 51.118 62.9077 51.1586C62.6775 51.2697 61.995 51.489 61.5454 51.6001C60.9063 51.7572 60.1588 51.8601 59.6631 51.8601H59.4465V52.8947C59.4465 53.8263 59.4383 53.9807 59.3815 54.3924C59.0863 56.5834 58.2277 58.5497 56.8383 60.2288C56.5377 60.5917 55.7902 61.3447 55.4381 61.6399C53.7102 63.0915 51.6627 63.9663 49.3308 64.2561C48.7973 64.3211 47.4567 64.3211 46.9069 64.2534C45.3306 64.0638 43.8113 63.5709 42.5194 62.8315C39.3235 60.998 37.2192 57.8076 36.8021 54.1622C36.7804 53.9753 36.756 53.5663 36.7479 53.2549C36.664 50.3651 37.7229 47.5078 39.6756 45.3492C41.1327 43.7405 42.9473 42.603 44.9975 42.0153C46.0592 41.7119 47.0179 41.5792 47.9929 41.6009L48.5644 41.6144L48.5806 41.0294C48.605 40.1005 48.7485 39.3069 49.079 38.3103C49.1331 38.1505 49.171 38.0124 49.1629 38.007C49.1575 37.9988 48.9571 37.9744 48.7188 37.9528C48.3369 37.9149 47.0938 37.9013 46.7579 37.9311Z" fill="#0D37F2"/>
</g>
<defs>
<clipPath id="clip0_377_3832">
<rect width="52" height="52" fill="white" transform="translate(27.0312 35)"/>
</clipPath>
</defs>
</svg>
