<svg width="13" height="39" viewBox="0 0 13 39" fill="none" xmlns="http://www.w3.org/2000/svg">
<path d="M13 6.77947C13 5.11405 12.3152 3.51683 11.0962 2.33921C9.87725 1.16158 8.22391 0.5 6.5 0.5C4.77609 0.5 3.1228 1.16158 1.90381 2.33921C0.684818 3.51683 0 5.11405 0 6.77947V25.7679L5.35294 29.4733V38.5H7.64706V29.4733L13 25.7679V6.77947ZM10.7059 17.3992L7.64706 20.3542V17.5838L10.7059 14.6288V17.3992ZM2.34191 14.6288L5.40074 17.5838V20.3542L2.34191 17.3992V14.6288ZM10.7059 11.4891L6.5 15.5522L2.29412 11.3967V8.62637L6.5 12.6896L10.7059 8.62637V11.4891ZM6.5 2.71628C7.42499 2.72023 8.32314 3.01702 9.05687 3.56116C9.79062 4.1053 10.3195 4.8668 10.5625 5.72904L6.5 9.64216L2.4375 5.72904C2.67162 4.85823 3.19667 4.08639 3.93122 3.53332C4.66577 2.98023 5.56872 2.67679 6.5 2.6701V2.71628ZM2.29412 24.6482V20.4927L5.35294 23.4478V26.7491L2.29412 24.6482ZM7.64706 26.7606V23.4478L10.7059 20.4927V24.6367L7.64706 26.7606Z" fill="white"/>
</svg>
