<svg xmlns="http://www.w3.org/2000/svg" width="154" height="42" viewBox="0 0 154 42" fill="none">
<g clip-path="url(#clip0_377_2494)" filter="url(#filter0_d_377_2494)">
<path d="M12.4297 19.5204C12.4297 14.8677 14.5966 9.766 18.6779 6.76436C17.5359 6.25605 16.3426 5.99633 15.1018 6.00004C14.9151 6.00004 14.7321 6.00746 14.549 6.01488C10.7606 6.21153 7.47365 8.63807 5.75329 12.0664C4.63324 14.3037 4 16.8379 4 19.5204C4 21.9321 4.51245 24.2251 5.43119 26.288C7.01611 29.8536 10.2079 32.5028 14.0403 32.9369C14.388 32.9777 14.743 32.9963 15.1018 33C16.4634 33.0037 17.7628 32.6883 19 32.0798C14.8309 29.0893 12.4297 24.2251 12.4297 19.5204Z" fill="url(#paint0_linear_377_2494)"/>
<path d="M37 28.3062C40.4765 32.3867 44.3131 35.6756 48.5137 36.5266C54.4203 37.7232 59 36.2739 59 36.2739C52.2366 35.7685 46.5613 28.2393 41.8072 21C41.4205 21.602 41.0376 22.1966 40.6622 22.7801C39.3543 24.8203 38.1487 26.6971 37 28.3062Z" fill="url(#paint1_linear_377_2494)"/>
<path d="M33.9932 8.89139C27.9954 2.58116 20.541 3.01384 20.541 3.01384C15.6927 2.76496 11 5.95453 11 5.95453C11 5.95453 17.3695 2.58116 23.3672 8.89522C25.4499 11.0892 27.8437 14.8838 30.541 19C32.2367 16.4422 34.0577 13.8117 36 11.3917C35.3058 10.4192 34.6343 9.56912 33.9932 8.89139Z" fill="url(#paint2_linear_377_2494)"/>
<path d="M47.5108 7.46427C45.641 8.90015 43.9768 10.6014 42.4384 12.4008C40.9075 14.2111 39.4604 16.1013 38.0894 18.0498C35.3133 21.9284 32.7847 25.9889 29.7686 29.8276C29.0032 30.78 28.2073 31.7215 27.3048 32.5939C26.387 33.459 25.3893 34.2442 24.3001 34.9022C23.569 35.3348 22.7959 35.6983 22 36C24.639 35.6983 29.384 34.5787 33.4587 30.5219C39.4794 24.5275 47.7355 4.82881 59 4.00727C59 4.00727 58.981 4.00364 58.9695 4C57.2444 4.00364 55.5308 4.15995 53.8628 4.50892C51.4865 4.91969 49.392 6.0393 47.5108 7.46427Z" fill="url(#paint3_linear_377_2494)"/>
<path d="M29.1249 28.8224C30.5268 26.9008 31.8448 24.895 33.1705 22.8893C34.5114 20.8908 35.8332 18.8667 37.2579 16.9012C38.6826 14.9357 40.1492 12.9812 41.7949 11.1511C43.4329 9.31736 45.2157 7.5678 47.2804 6.11838C48.3089 5.39366 49.4136 4.74581 50.5983 4.24803C51.7716 3.75025 53.0668 3.40253 54.3125 3.25612C54.8724 3.18292 55.4362 3.13168 56 3.09142C54.1677 2.93403 51.7678 2.93403 49.0936 3.46475C38.0274 5.66085 29.4373 24.3753 23.4185 30.4073C17.3959 36.4392 11 33.2183 11 33.2183C11 33.2183 14.8208 35.6816 19.1368 36C20.9881 35.6852 22.7405 34.9129 24.2528 33.8551C26.2032 32.5338 27.7231 30.7513 29.1249 28.8224Z" fill="url(#paint4_linear_377_2494)"/>
</g>
<path d="M62.5253 21.6129H66.8111L64.7373 16.4977H64.5991L62.5253 21.6129ZM66.2581 15.3226L70.1982 25H68.2074L67.2949 22.6498H62.0415L61.129 25H59.1382L63.0783 15.3226H66.2581ZM76.6375 24.0323V18.7788H74.9094C74.5961 18.7788 74.3057 18.8295 74.0385 18.9309C73.7804 19.023 73.5546 19.1751 73.361 19.3871C73.1767 19.5991 73.0292 19.871 72.9186 20.2028C72.8173 20.5346 72.7666 20.9355 72.7666 21.4055C72.7666 21.8756 72.8173 22.2765 72.9186 22.6083C73.0292 22.9401 73.1767 23.212 73.361 23.424C73.5546 23.6359 73.7804 23.7926 74.0385 23.894C74.3057 23.9862 74.5961 24.0323 74.9094 24.0323H76.6375ZM74.9094 25C74.2735 25 73.6928 24.9171 73.1675 24.7512C72.6514 24.5853 72.209 24.3456 71.8403 24.0323C71.4716 23.7189 71.1859 23.341 70.9832 22.8986C70.7896 22.4562 70.6928 21.9585 70.6928 21.4055C70.6928 20.8525 70.7896 20.3548 70.9832 19.9124C71.1859 19.47 71.4716 19.0922 71.8403 18.7788C72.209 18.4654 72.6514 18.2258 73.1675 18.0599C73.6928 17.894 74.2735 17.8111 74.9094 17.8111H76.6375V15.3226H78.573V25H74.9094ZM85.4795 25H82.438L79.6731 17.8111H81.6085L83.8897 23.8249H84.0279L86.309 17.8111H88.2445L85.4795 25ZM93.2231 24.3088C93.6747 24.3088 94.094 24.2304 94.4811 24.0737C94.8774 23.9171 95.2645 23.6959 95.6424 23.4101L96.1954 24.2396C96.0203 24.3963 95.8129 24.5392 95.5733 24.6682C95.3429 24.7972 95.0894 24.9078 94.8129 25C94.5457 25.0829 94.2645 25.1475 93.9696 25.1935C93.6747 25.2488 93.3798 25.2765 93.0848 25.2765C92.4304 25.2765 91.8314 25.1889 91.2876 25.0138C90.753 24.8479 90.2968 24.6037 89.9189 24.2811C89.541 23.9493 89.2461 23.5438 89.0341 23.0645C88.8314 22.5853 88.73 22.0323 88.73 21.4055C88.73 20.788 88.8268 20.2396 89.0203 19.7604C89.2231 19.2719 89.4996 18.8664 89.8498 18.5438C90.2092 18.212 90.6332 17.9631 91.1217 17.7972C91.6102 17.6221 92.1493 17.5346 92.7392 17.5346C93.2922 17.5346 93.8129 17.6175 94.3014 17.7834C94.7899 17.9493 95.2139 18.1935 95.5733 18.5161C95.9327 18.8295 96.2185 19.212 96.4304 19.6636C96.6424 20.1152 96.7484 20.6267 96.7484 21.1982V22.1659H90.8452C90.9558 22.9309 91.2185 23.4793 91.6332 23.8111C92.0572 24.1429 92.5871 24.3088 93.2231 24.3088ZM92.7392 18.4332C92.4719 18.4332 92.2231 18.4839 91.9927 18.5853C91.7622 18.6866 91.5595 18.8479 91.3844 19.0691C91.2185 19.2903 91.0802 19.576 90.9696 19.9263C90.8682 20.2765 90.8129 20.7005 90.8037 21.1982H94.6747C94.6747 20.7189 94.6194 20.3041 94.5088 19.9539C94.3982 19.6037 94.2507 19.318 94.0664 19.0968C93.8913 18.8664 93.6839 18.7005 93.4443 18.5991C93.2139 18.4885 92.9788 18.4332 92.7392 18.4332ZM103.798 18.7788H102.139C101.512 18.7788 101.033 18.9493 100.701 19.2903C100.369 19.6221 100.204 20.1198 100.204 20.7834V25H98.2681V20.7834C98.2681 19.8433 98.563 19.1152 99.1529 18.5991C99.7519 18.0737 100.609 17.8111 101.724 17.8111H103.798V18.7788ZM105.521 18.7788H104.207V17.8111H105.521V15.5991H107.456V17.8111H109.599V18.7788H107.456V22.3733C107.456 22.7235 107.493 23.023 107.567 23.2719C107.65 23.5115 107.756 23.7097 107.885 23.8664C108.023 24.0138 108.18 24.1244 108.355 24.1982C108.53 24.2719 108.714 24.3088 108.908 24.3088C109.184 24.3088 109.452 24.2673 109.71 24.1843C109.968 24.0922 110.184 23.9954 110.359 23.894L110.774 24.7926C110.498 24.9309 110.18 25.0461 109.82 25.1382C109.47 25.2304 109.12 25.2765 108.77 25.2765C107.728 25.2765 106.926 25.0184 106.364 24.5023C105.802 23.9862 105.521 23.2765 105.521 22.3733V18.7788ZM113.883 25H111.948V17.9493H113.883V25ZM113.952 16.0829C113.952 16.3594 113.856 16.6037 113.662 16.8157C113.478 17.0184 113.229 17.1198 112.915 17.1198C112.602 17.1198 112.349 17.0184 112.155 16.8157C111.971 16.6037 111.879 16.3594 111.879 16.0829C111.879 15.8065 111.971 15.5668 112.155 15.3641C112.349 15.1521 112.602 15.0461 112.915 15.0461C113.22 15.0461 113.468 15.1521 113.662 15.3641C113.856 15.5668 113.952 15.8065 113.952 16.0829ZM117.547 19.3318C117.547 19.5438 117.639 19.7373 117.824 19.9124C118.017 20.0876 118.34 20.2396 118.792 20.3687L120.934 20.9908C121.598 21.1843 122.11 21.447 122.469 21.7788C122.828 22.1106 123.008 22.5392 123.008 23.0645C123.008 23.3963 122.939 23.7005 122.801 23.977C122.663 24.2442 122.437 24.4747 122.123 24.6682C121.81 24.8618 121.404 25.0092 120.907 25.1106C120.409 25.2212 119.796 25.2765 119.068 25.2765C118.69 25.2765 118.317 25.2488 117.948 25.1935C117.589 25.1382 117.243 25.0645 116.911 24.9724C116.589 24.871 116.294 24.7604 116.027 24.6406C115.759 24.5115 115.529 24.3779 115.335 24.2396L115.888 23.4101C116.275 23.6498 116.727 23.8618 117.243 24.0461C117.769 24.2212 118.377 24.3088 119.068 24.3088C119.759 24.3088 120.243 24.2166 120.52 24.0323C120.796 23.8479 120.934 23.6175 120.934 23.341C120.934 23.129 120.838 22.9401 120.644 22.7742C120.451 22.5991 120.11 22.4424 119.621 22.3041L117.478 21.682C116.888 21.5069 116.404 21.2581 116.027 20.9355C115.658 20.6037 115.474 20.1613 115.474 19.6083C115.474 19.3134 115.538 19.0415 115.667 18.7926C115.805 18.5346 116.017 18.3134 116.303 18.129C116.589 17.9447 116.953 17.8018 117.395 17.7005C117.838 17.5899 118.372 17.5346 118.999 17.5346C119.764 17.5346 120.455 17.6406 121.073 17.8525C121.699 18.0553 122.206 18.2949 122.593 18.5714L122.04 19.4009C121.663 19.1613 121.234 18.9539 120.755 18.7788C120.275 18.5945 119.69 18.5023 118.999 18.5023C118.51 18.5023 118.146 18.5806 117.907 18.7373C117.667 18.894 117.547 19.0922 117.547 19.3318ZM128.541 24.3088C128.993 24.3088 129.412 24.2304 129.799 24.0737C130.196 23.9171 130.583 23.6959 130.961 23.4101L131.514 24.2396C131.339 24.3963 131.131 24.5392 130.892 24.6682C130.661 24.7972 130.408 24.9078 130.131 25C129.864 25.0829 129.583 25.1475 129.288 25.1935C128.993 25.2488 128.698 25.2765 128.403 25.2765C127.749 25.2765 127.15 25.1889 126.606 25.0138C126.071 24.8479 125.615 24.6037 125.237 24.2811C124.859 23.9493 124.564 23.5438 124.352 23.0645C124.15 22.5853 124.048 22.0323 124.048 21.4055C124.048 20.788 124.145 20.2396 124.339 19.7604C124.541 19.2719 124.818 18.8664 125.168 18.5438C125.528 18.212 125.951 17.9631 126.44 17.7972C126.928 17.6221 127.468 17.5346 128.057 17.5346C128.61 17.5346 129.131 17.6175 129.62 17.7834C130.108 17.9493 130.532 18.1935 130.892 18.5161C131.251 18.8295 131.537 19.212 131.749 19.6636C131.961 20.1152 132.067 20.6267 132.067 21.1982V22.1659H126.163C126.274 22.9309 126.537 23.4793 126.951 23.8111C127.375 24.1429 127.905 24.3088 128.541 24.3088ZM128.057 18.4332C127.79 18.4332 127.541 18.4839 127.311 18.5853C127.081 18.6866 126.878 18.8479 126.703 19.0691C126.537 19.2903 126.398 19.576 126.288 19.9263C126.186 20.2765 126.131 20.7005 126.122 21.1982H129.993C129.993 20.7189 129.938 20.3041 129.827 19.9539C129.716 19.6037 129.569 19.318 129.385 19.0968C129.21 18.8664 129.002 18.7005 128.763 18.5991C128.532 18.4885 128.297 18.4332 128.057 18.4332ZM140.493 25H138.489V15.3226H140.493V25ZM147.684 15.0461C148.514 15.0461 149.265 15.1567 149.938 15.3779C150.62 15.5991 151.201 15.9263 151.68 16.3594C152.168 16.7926 152.546 17.3272 152.814 17.9631C153.081 18.5991 153.214 19.3318 153.214 20.1613C153.214 21.2212 153.002 22.1198 152.578 22.8571C152.155 23.5945 151.565 24.1659 150.809 24.5714L151.694 25.553L150.726 26.4516L149.496 25.0691C148.943 25.2074 148.339 25.2765 147.684 25.2765C146.855 25.2765 146.099 25.1659 145.417 24.9447C144.735 24.7235 144.15 24.3963 143.661 23.9631C143.182 23.53 142.809 22.9954 142.542 22.3594C142.284 21.7235 142.155 20.9908 142.155 20.1613C142.155 19.3318 142.284 18.5991 142.542 17.9631C142.809 17.3272 143.182 16.7926 143.661 16.3594C144.15 15.9263 144.735 15.5991 145.417 15.3779C146.099 15.1567 146.855 15.0461 147.684 15.0461ZM147.684 16.0138C147.214 16.0138 146.772 16.0968 146.357 16.2627C145.952 16.4286 145.597 16.682 145.293 17.023C144.989 17.3641 144.744 17.7972 144.56 18.3226C144.385 18.8387 144.297 19.4516 144.297 20.1613C144.297 20.871 144.385 21.4885 144.56 22.0138C144.744 22.53 144.989 22.9585 145.293 23.2995C145.597 23.6406 145.952 23.894 146.357 24.0599C146.772 24.2258 147.214 24.3088 147.684 24.3088C148.044 24.3088 148.376 24.2627 148.68 24.1705L147.892 23.2719L148.86 22.3733L149.869 23.5069C150.237 23.1751 150.528 22.7327 150.74 22.1797C150.961 21.6267 151.072 20.9539 151.072 20.1613C151.072 19.4516 150.979 18.8387 150.795 18.3226C150.62 17.7972 150.38 17.3641 150.076 17.023C149.772 16.682 149.413 16.4286 148.998 16.2627C148.592 16.0968 148.155 16.0138 147.684 16.0138Z" fill="#fcfcfc"/>
<defs fill="#e3d9d9">
<filter id="filter0_d_377_2494" x="0.889401" y="0.926267" width="61.2212" height="40.2212" filterUnits="userSpaceOnUse" color-interpolation-filters="sRGB" fill="#e3d9d9">
<feFlood flood-opacity="0" result="BackgroundImageFix" fill="#e3d9d9"/>
<feColorMatrix in="SourceAlpha" type="matrix" values="0 0 0 0 0 0 0 0 0 0 0 0 0 0 0 0 0 0 127 0" result="hardAlpha" fill="#e3d9d9"/>
<feOffset dy="1.03687" fill="#e3d9d9"/>
<feGaussianBlur stdDeviation="1.5553" fill="#e3d9d9"/>
<feComposite in2="hardAlpha" operator="out" fill="#e3d9d9"/>
<feColorMatrix type="matrix" values="0 0 0 0 0 0 0 0 0 0 0 0 0 0 0 0 0 0 0.25 0" fill="#e3d9d9"/>
<feBlend mode="normal" in2="BackgroundImageFix" result="effect1_dropShadow_377_2494" fill="#e3d9d9"/>
<feBlend mode="normal" in="SourceGraphic" in2="effect1_dropShadow_377_2494" result="shape" fill="#e3d9d9"/>
</filter>
<linearGradient id="paint0_linear_377_2494" x1="11.5" y1="14.0049" x2="11.5" y2="38.4363" gradientUnits="userSpaceOnUse" fill="#e3d9d9">
<stop stop-color="#03a9f4" fill="#e3d9d9"/>
<stop offset="1" stop-color="#0D0E59" fill="#e3d9d9"/>
</linearGradient>
<linearGradient id="paint1_linear_377_2494" x1="21.1191" y1="-3.13272" x2="37.5278" y2="19.3694" gradientUnits="userSpaceOnUse" fill="#e3d9d9">
<stop stop-color="#3CBBF2" fill="#e3d9d9"/>
<stop offset="0.5477" stop-color="#2374F2" fill="#e3d9d9"/>
<stop offset="1" stop-color="#0D37F2" fill="#e3d9d9"/>
</linearGradient>
<linearGradient id="paint2_linear_377_2494" x1="16.8914" y1="-0.300709" x2="33.943" y2="22.4094" gradientUnits="userSpaceOnUse" fill="#e3d9d9">
<stop stop-color="#3CBBF2" fill="#e3d9d9"/>
<stop offset="0.5477" stop-color="#2374F2" fill="#e3d9d9"/>
<stop offset="1" stop-color="#0D37F2" fill="#e3d9d9"/>
</linearGradient>
<linearGradient id="paint3_linear_377_2494" x1="24.6541" y1="40.3373" x2="49.138" y2="5.85775" gradientUnits="userSpaceOnUse" fill="#e3d9d9">
<stop stop-color="#0D37F2" fill="#e3d9d9"/>
<stop offset="0.00392973" stop-color="#0D38F2" fill="#e3d9d9"/>
<stop offset="0.364" stop-color="#2284F8" fill="#e3d9d9"/>
<stop offset="0.6614" stop-color="#32BCFC" fill="#e3d9d9"/>
<stop offset="0.8814" stop-color="#3BDFFE" fill="#e3d9d9"/>
<stop offset="1" stop-color="#3FECFF" fill="#e3d9d9"/>
</linearGradient>
<linearGradient id="paint4_linear_377_2494" x1="19.5311" y1="36.1922" x2="44.2365" y2="1.62784" gradientUnits="userSpaceOnUse" fill="#e3d9d9">
<stop stop-color="#0D37F2" fill="#e3d9d9"/>
<stop offset="0.00392973" stop-color="#0D38F2" fill="#e3d9d9"/>
<stop offset="0.364" stop-color="#2284F8" fill="#e3d9d9"/>
<stop offset="0.6614" stop-color="#32BCFC" fill="#e3d9d9"/>
<stop offset="0.8814" stop-color="#3BDFFE" fill="#e3d9d9"/>
<stop offset="1" stop-color="#3FECFF" fill="#e3d9d9"/>
</linearGradient>
<clipPath id="clip0_377_2494" fill="#e3d9d9">
<rect width="55" height="34" fill="white" transform="translate(4 3)"/>
</clipPath>
</defs>
</svg>