<svg width="51" height="50" viewBox="0 0 51 50" fill="none" xmlns="http://www.w3.org/2000/svg">
<g clip-path="url(#clip0_56_1485)">
<path d="M47.2742 14H45.6613V48.4H44.0484V14H42.4355V48.4H40.8226V32.4H39.2097V48.4H37.5968V32.4H35.9839V48.4H34.371V28.4H32.7581V48.4H31.1452V28.4H29.5323V48.4H27.9194V30H26.3065V48.4H24.6935V30H23.0806V48.4H21.4677V18.8H19.8548V48.4H18.2419V18.8H16.629V48.4H15.0161V34H13.4032V48.4H11.7903V34H10.1774V48.4H8.56452V30.8H6.95161V48.4H5.33871V30.8H3.72581V48.4H0.5V50H50.5V48.4H47.2742V14Z" fill="#110808"/>
<path d="M6 28C9.03207 28 11.5 25.5321 11.5 22.5C11.5 19.4679 9.03207 17 6 17C2.96793 17 0.5 19.4679 0.5 22.5C0.5 25.5321 2.96793 28 6 28ZM7.57143 26.0954C7.089 26.3076 6.55943 26.4286 6 26.4286C5.44057 26.4286 4.911 26.3076 4.42857 26.0954V25.6429C4.42857 24.7762 5.13336 24.0714 6 24.0714C6.86664 24.0714 7.57143 24.7762 7.57143 25.6429V26.0954ZM5.21429 21.7143C5.21429 21.2806 5.56629 20.9286 6 20.9286C6.43371 20.9286 6.78571 21.2806 6.78571 21.7143C6.78571 22.148 6.43371 22.5 6 22.5C5.56629 22.5 5.21429 22.148 5.21429 21.7143ZM6 18.5714C8.16621 18.5714 9.92857 20.3338 9.92857 22.5C9.92857 23.4256 9.59386 24.2655 9.05643 24.9373C8.88671 24.2019 8.45693 23.5701 7.87079 23.1317C8.17171 22.7365 8.35714 22.2486 8.35714 21.7143C8.35714 20.4147 7.29957 19.3571 6 19.3571C4.70043 19.3571 3.64286 20.4147 3.64286 21.7143C3.64286 22.2486 3.82829 22.7365 4.12921 23.1325C3.54307 23.5701 3.11329 24.2026 2.94357 24.9381C2.40614 24.2655 2.07143 23.4256 2.07143 22.5C2.07143 20.3338 3.83379 18.5714 6 18.5714Z" fill="#110808"/>
<path d="M19 16C22.0321 16 24.5 13.5321 24.5 10.5C24.5 7.46793 22.0321 5 19 5C15.9679 5 13.5 7.46793 13.5 10.5C13.5 13.5321 15.9679 16 19 16ZM20.5714 14.0954C20.089 14.3076 19.5594 14.4286 19 14.4286C18.4406 14.4286 17.911 14.3076 17.4286 14.0954V13.6429C17.4286 12.7762 18.1334 12.0714 19 12.0714C19.8666 12.0714 20.5714 12.7762 20.5714 13.6429V14.0954ZM18.2143 9.71429C18.2143 9.28057 18.5663 8.92857 19 8.92857C19.4337 8.92857 19.7857 9.28057 19.7857 9.71429C19.7857 10.148 19.4337 10.5 19 10.5C18.5663 10.5 18.2143 10.148 18.2143 9.71429ZM19 6.57143C21.1662 6.57143 22.9286 8.33379 22.9286 10.5C22.9286 11.4256 22.5939 12.2655 22.0564 12.9373C21.8867 12.2019 21.4569 11.5701 20.8708 11.1317C21.1717 10.7365 21.3571 10.2486 21.3571 9.71429C21.3571 8.41471 20.2996 7.35714 19 7.35714C17.7004 7.35714 16.6429 8.41471 16.6429 9.71429C16.6429 10.2486 16.8283 10.7365 17.1292 11.1325C16.5431 11.5701 16.1133 12.2026 15.9436 12.9381C15.4061 12.2655 15.0714 11.4256 15.0714 10.5C15.0714 8.33379 16.8338 6.57143 19 6.57143Z" fill="#110808"/>
<path d="M32 26C35.0321 26 37.5 23.5321 37.5 20.5C37.5 17.4679 35.0321 15 32 15C28.9679 15 26.5 17.4679 26.5 20.5C26.5 23.5321 28.9679 26 32 26ZM33.5714 24.0954C33.089 24.3076 32.5594 24.4286 32 24.4286C31.4406 24.4286 30.911 24.3076 30.4286 24.0954V23.6429C30.4286 22.7762 31.1334 22.0714 32 22.0714C32.8666 22.0714 33.5714 22.7762 33.5714 23.6429V24.0954ZM31.2143 19.7143C31.2143 19.2806 31.5663 18.9286 32 18.9286C32.4337 18.9286 32.7857 19.2806 32.7857 19.7143C32.7857 20.148 32.4337 20.5 32 20.5C31.5663 20.5 31.2143 20.148 31.2143 19.7143ZM32 16.5714C34.1662 16.5714 35.9286 18.3338 35.9286 20.5C35.9286 21.4256 35.5939 22.2655 35.0564 22.9373C34.8867 22.2019 34.4569 21.5701 33.8708 21.1317C34.1717 20.7365 34.3571 20.2486 34.3571 19.7143C34.3571 18.4147 33.2996 17.3571 32 17.3571C30.7004 17.3571 29.6429 18.4147 29.6429 19.7143C29.6429 20.2486 29.8283 20.7365 30.1292 21.1325C29.5431 21.5701 29.1133 22.2026 28.9436 22.9381C28.4061 22.2655 28.0714 21.4256 28.0714 20.5C28.0714 18.3338 29.8338 16.5714 32 16.5714Z" fill="#110808"/>
<path d="M45 11C48.0321 11 50.5 8.53207 50.5 5.5C50.5 2.46793 48.0321 0 45 0C41.9679 0 39.5 2.46793 39.5 5.5C39.5 8.53207 41.9679 11 45 11ZM46.5714 9.09543C46.089 9.30757 45.5594 9.42857 45 9.42857C44.4406 9.42857 43.911 9.30757 43.4286 9.09543V8.64286C43.4286 7.77621 44.1334 7.07143 45 7.07143C45.8666 7.07143 46.5714 7.77621 46.5714 8.64286V9.09543ZM44.2143 4.71429C44.2143 4.28057 44.5663 3.92857 45 3.92857C45.4337 3.92857 45.7857 4.28057 45.7857 4.71429C45.7857 5.148 45.4337 5.5 45 5.5C44.5663 5.5 44.2143 5.148 44.2143 4.71429ZM45 1.57143C47.1662 1.57143 48.9286 3.33379 48.9286 5.5C48.9286 6.42557 48.5939 7.2655 48.0564 7.93729C47.8867 7.20186 47.4569 6.57014 46.8708 6.13171C47.1717 5.7365 47.3571 5.24857 47.3571 4.71429C47.3571 3.41471 46.2996 2.35714 45 2.35714C43.7004 2.35714 42.6429 3.41471 42.6429 4.71429C42.6429 5.24857 42.8283 5.7365 43.1292 6.1325C42.5431 6.57014 42.1133 7.20264 41.9436 7.93807C41.4061 7.2655 41.0714 6.42557 41.0714 5.5C41.0714 3.33379 42.8338 1.57143 45 1.57143Z" fill="#110808"/>
</g>
<defs>
<clipPath id="clip0_56_1485">
<rect width="50" height="50" fill="white" transform="translate(0.5)"/>
</clipPath>
</defs>
</svg>
