<svg width="23" height="23" viewBox="0 0 23 23" fill="none" xmlns="http://www.w3.org/2000/svg">
<circle cx="11.5" cy="11.5" r="11.5" fill="#0D37F2"/>
<path d="M8.26 16V15.132L11.634 11.492C12.11 10.9693 12.4507 10.4933 12.656 10.064C12.8707 9.63467 12.978 9.196 12.978 8.748C12.978 7.6 12.3107 7.026 10.976 7.026C9.97733 7.026 9.09533 7.39933 8.33 8.146L7.896 7.25C8.26 6.87667 8.722 6.578 9.282 6.354C9.85133 6.12067 10.4487 6.004 11.074 6.004C12.0633 6.004 12.8193 6.23733 13.342 6.704C13.874 7.16133 14.14 7.81467 14.14 8.664C14.14 9.252 13.9953 9.83067 13.706 10.4C13.4167 10.96 12.9733 11.5573 12.376 12.192L9.73 15.02H14.546V16H8.26Z" fill="white"/>
</svg>
