<svg width="24" height="23" viewBox="0 0 24 23" fill="none" xmlns="http://www.w3.org/2000/svg">
<circle cx="12" cy="11.5" r="11.5" fill="#0D37F2"/>
<path d="M11.088 16.126C10.4347 16.126 9.814 16.028 9.226 15.832C8.638 15.6267 8.14333 15.3327 7.742 14.95L8.162 14.04C8.61933 14.4133 9.08133 14.684 9.548 14.852C10.0147 15.02 10.5187 15.104 11.06 15.104C11.7693 15.104 12.3107 14.95 12.684 14.642C13.0667 14.3247 13.258 13.8627 13.258 13.256C13.258 12.6773 13.0667 12.2387 12.684 11.94C12.3013 11.6413 11.746 11.492 11.018 11.492H9.562V10.498H10.92C11.5547 10.498 12.054 10.3347 12.418 10.008C12.7913 9.672 12.978 9.21467 12.978 8.636C12.978 8.12267 12.8053 7.726 12.46 7.446C12.124 7.166 11.6433 7.026 11.018 7.026C9.99133 7.026 9.09533 7.39933 8.33 8.146L7.91 7.25C8.274 6.858 8.736 6.55467 9.296 6.34C9.86533 6.116 10.4627 6.004 11.088 6.004C12.04 6.004 12.782 6.228 13.314 6.676C13.8553 7.124 14.126 7.74467 14.126 8.538C14.126 9.08867 13.986 9.574 13.706 9.994C13.426 10.4047 13.0387 10.7033 12.544 10.89C13.132 11.0487 13.5893 11.3427 13.916 11.772C14.2427 12.192 14.406 12.7147 14.406 13.34C14.406 14.1893 14.1073 14.866 13.51 15.37C12.922 15.874 12.1147 16.126 11.088 16.126Z" fill="white"/>
</svg>
