<svg width="50" height="50" viewBox="0 0 50 50" fill="none" xmlns="http://www.w3.org/2000/svg">
<mask id="path-1-outside-1_377_2663" maskUnits="userSpaceOnUse" x="1" y="0" width="49" height="49" fill="black">
<rect fill="white" x="1" width="49" height="49"/>
<path d="M20.2615 1.24479L20.0167 1.47979V4.89708V8.32417L18.9788 8.73542L17.9506 9.15646L15.5223 6.73792C13.3094 4.53479 13.0646 4.32917 12.761 4.32917C12.4575 4.32917 12.154 4.60333 8.88354 7.88354C5.60333 11.154 5.32917 11.4575 5.32917 11.761C5.32917 12.0646 5.53479 12.3094 7.73792 14.5223L10.1565 16.9506L9.73542 17.9788L9.32417 19.0167H5.89708H2.47979L2.24479 19.2615L2 19.4965V24.5V29.5035L2.24479 29.7385L2.47979 29.9833H5.89708H9.32417L9.73542 31.0212L10.1565 32.0494L7.73792 34.4777C5.53479 36.6906 5.32917 36.9354 5.32917 37.239C5.32917 37.5425 5.60333 37.846 8.88354 41.1165C12.154 44.3967 12.4575 44.6708 12.761 44.6708C13.0646 44.6708 13.3094 44.4652 15.5125 42.2719C16.8344 40.95 17.9506 39.8729 17.9898 39.8729C18.029 39.8729 18.499 40.059 19.0375 40.2744L20.0167 40.6856V44.1029V47.5202L20.2615 47.7552L20.4965 48H25.5H30.5035L30.7385 47.7552L30.9833 47.5202V44.1029V40.6758L32.0212 40.2646L33.0494 39.8435L35.4777 42.2621C37.6906 44.4652 37.9354 44.6708 38.239 44.6708C38.5425 44.6708 38.846 44.3967 42.1165 41.1165C45.3281 37.9146 45.6708 37.5425 45.6708 37.2487C45.6708 36.9942 45.5435 36.7983 44.9756 36.201L44.2706 35.4667H46.3954H48.5202L48.7552 35.2219L49 34.9869V21.3667V7.74646L48.7552 7.51146L48.5202 7.26667H45.0833H41.6465L41.4115 7.51146L41.1667 7.74646V10.6448V13.5333H38.2781H35.3798L35.1448 13.7781C34.9 14.0131 34.9 14.0131 34.9 16.1281V18.2333H32.0115H29.1131L28.8781 18.4781L28.6333 18.7131V21.2198V23.7167H25.7448H22.8465L22.6115 23.9615C22.3667 24.1965 22.3667 24.2258 22.3667 25.9198V27.6333H19.4879H16.619L16.4623 27.0654C16.2665 26.38 16.1 25.3617 16.1 24.8623V24.5H17.8331H19.5662L21.5344 22.5417L23.5025 20.5833H25.0398C26.5477 20.5833 26.5869 20.5735 26.8219 20.3385C27.0569 20.1035 27.0667 20.0644 27.0667 18.5565V17.0094L28.4179 15.6581L29.7594 14.3167H31.3065C32.8144 14.3167 32.8535 14.3069 33.0885 14.0719C33.3235 13.8369 33.3333 13.7977 33.3333 12.2898V10.7427L34.6846 9.39146L36.026 8.05H37.5731C39.081 8.05 39.1202 8.04021 39.3552 7.80521C39.5902 7.57021 39.6 7.53104 39.6 6.02312V4.47604L40.5596 3.51646L41.5094 2.56667H45.2596H49V1.78333V1H44.9169H40.8435L39.649 2.175L38.4642 3.35H36.9269C35.419 3.35 35.3798 3.35979 35.1448 3.59479C34.9098 3.82979 34.9 3.86896 34.9 5.37688V6.92396L33.5487 8.27521L32.2073 9.61666H30.6602C29.1523 9.61666 29.1131 9.62646 28.8781 9.86146C28.6431 10.0965 28.6333 10.1356 28.6333 11.6435V13.1906L27.2821 14.5419L25.9406 15.8833H24.3935C22.8856 15.8833 22.8465 15.8931 22.6115 16.1281C22.3765 16.3631 22.3667 16.4023 22.3667 17.9102V19.4573L20.6238 21.2002L18.8906 22.9333H17.5492H16.2175L16.3546 22.3458C16.8931 20.0448 18.2542 18.106 20.3985 16.6079C20.4377 16.5688 19.7131 15.3937 19.6054 15.335C19.4879 15.2567 18.1954 16.2554 17.5981 16.8821C15.2285 19.3985 14.1123 22.9529 14.6802 26.2233C14.9054 27.5256 15.1796 28.3188 15.7671 29.484C17.4023 32.7054 20.4377 34.8498 24.0802 35.3687C24.4621 35.4177 27.1352 35.4667 30.151 35.4667L35.5365 35.4765L35.0958 35.8681C33.3921 37.3858 30.6504 38.6685 28.0948 39.1483C26.7729 39.3931 24.1585 39.4029 22.9052 39.1581C19.6935 38.5315 17.0008 37.0823 14.8173 34.8204C12.3204 32.2158 10.9104 29.0433 10.6558 25.4302L10.5873 24.5H9.82354H9.05V24.9798C9.05 25.5085 9.29479 27.4571 9.43187 28.0446L9.52 28.4167H6.54333H3.56667V24.5V20.5833H6.83708C9.80396 20.5833 10.1271 20.5637 10.3033 20.4071C10.5285 20.221 11.8896 16.9996 11.8896 16.6471C11.8896 16.4904 11.2238 15.756 9.56896 14.1012L7.23854 11.7708L10.0096 9.00958L12.7708 6.23854L15.1012 8.56896C16.7952 10.2531 17.4904 10.8896 17.6569 10.8896C18.0094 10.8896 21.221 9.53833 21.4169 9.30333C21.5637 9.12708 21.5833 8.80396 21.5833 5.83708V2.56667H25.5H29.4167V4.91667V7.26667H30.2H30.9833V4.37812V1.47979L30.7385 1.24479L30.5035 1H25.5H20.4965L20.2615 1.24479ZM38.0333 5.7V6.48333H37.25H36.4667V5.7V4.91667H37.25H38.0333V5.7ZM47.4333 21.3667V33.9H45.0833H42.7333V21.3667V8.83333H45.0833H47.4333V21.3667ZM31.7667 11.9667V12.75H30.9833H30.2V11.9667V11.1833H30.9833H31.7667V11.9667ZM41.1667 24.5V33.9H38.8167H36.4667V24.5V15.1H38.8167H41.1667V24.5ZM25.5 18.2333V19.0167H24.7167H23.9333V18.2333V17.45H24.7167H25.5V18.2333ZM34.9 26.85V33.9H32.55H30.2V26.85V19.8H32.55H34.9V26.85ZM28.6333 29.5917V33.9H26.7337C25.6958 33.9 24.6383 33.8706 24.3837 33.8413L23.9333 33.7727V29.5329V25.2833H26.2833H28.6333V29.5917ZM22.3667 31.2563C22.3667 32.7152 22.3373 33.3125 22.259 33.3125C22.0827 33.3125 20.6727 32.5781 20.1635 32.2354C19.2529 31.6087 18.1465 30.4533 17.5198 29.4644L17.3533 29.2H19.86H22.3667V31.2563ZM12.9177 35.075C13.8871 36.2304 14.8956 37.141 16.2665 38.081L16.9715 38.5706L14.8663 40.666L12.7708 42.7615L10.0096 39.9904L7.23854 37.2292L9.33396 35.1337L11.4392 33.0285L11.8798 33.6846C12.1148 34.0469 12.5848 34.6735 12.9177 35.075ZM42.8802 36.3479L43.7615 37.2292L40.9904 40.0002L38.2292 42.7615L36.1338 40.666L34.0285 38.5608L34.6454 38.1692C35.4287 37.6502 36.5744 36.7004 37.25 36.015L37.7788 35.4667H39.8937H41.999L42.8802 36.3479ZM23.4242 40.8031C25.1867 41.0381 27.4485 40.9402 29.0544 40.5681L29.4167 40.48V43.4567V46.4333H25.5H21.5833V43.4567V40.48L21.9554 40.5681C22.1513 40.6171 22.8171 40.7248 23.4242 40.8031Z"/>
</mask>
<path d="M20.2615 1.24479L20.0167 1.47979V4.89708V8.32417L18.9788 8.73542L17.9506 9.15646L15.5223 6.73792C13.3094 4.53479 13.0646 4.32917 12.761 4.32917C12.4575 4.32917 12.154 4.60333 8.88354 7.88354C5.60333 11.154 5.32917 11.4575 5.32917 11.761C5.32917 12.0646 5.53479 12.3094 7.73792 14.5223L10.1565 16.9506L9.73542 17.9788L9.32417 19.0167H5.89708H2.47979L2.24479 19.2615L2 19.4965V24.5V29.5035L2.24479 29.7385L2.47979 29.9833H5.89708H9.32417L9.73542 31.0212L10.1565 32.0494L7.73792 34.4777C5.53479 36.6906 5.32917 36.9354 5.32917 37.239C5.32917 37.5425 5.60333 37.846 8.88354 41.1165C12.154 44.3967 12.4575 44.6708 12.761 44.6708C13.0646 44.6708 13.3094 44.4652 15.5125 42.2719C16.8344 40.95 17.9506 39.8729 17.9898 39.8729C18.029 39.8729 18.499 40.059 19.0375 40.2744L20.0167 40.6856V44.1029V47.5202L20.2615 47.7552L20.4965 48H25.5H30.5035L30.7385 47.7552L30.9833 47.5202V44.1029V40.6758L32.0212 40.2646L33.0494 39.8435L35.4777 42.2621C37.6906 44.4652 37.9354 44.6708 38.239 44.6708C38.5425 44.6708 38.846 44.3967 42.1165 41.1165C45.3281 37.9146 45.6708 37.5425 45.6708 37.2487C45.6708 36.9942 45.5435 36.7983 44.9756 36.201L44.2706 35.4667H46.3954H48.5202L48.7552 35.2219L49 34.9869V21.3667V7.74646L48.7552 7.51146L48.5202 7.26667H45.0833H41.6465L41.4115 7.51146L41.1667 7.74646V10.6448V13.5333H38.2781H35.3798L35.1448 13.7781C34.9 14.0131 34.9 14.0131 34.9 16.1281V18.2333H32.0115H29.1131L28.8781 18.4781L28.6333 18.7131V21.2198V23.7167H25.7448H22.8465L22.6115 23.9615C22.3667 24.1965 22.3667 24.2258 22.3667 25.9198V27.6333H19.4879H16.619L16.4623 27.0654C16.2665 26.38 16.1 25.3617 16.1 24.8623V24.5H17.8331H19.5662L21.5344 22.5417L23.5025 20.5833H25.0398C26.5477 20.5833 26.5869 20.5735 26.8219 20.3385C27.0569 20.1035 27.0667 20.0644 27.0667 18.5565V17.0094L28.4179 15.6581L29.7594 14.3167H31.3065C32.8144 14.3167 32.8535 14.3069 33.0885 14.0719C33.3235 13.8369 33.3333 13.7977 33.3333 12.2898V10.7427L34.6846 9.39146L36.026 8.05H37.5731C39.081 8.05 39.1202 8.04021 39.3552 7.80521C39.5902 7.57021 39.6 7.53104 39.6 6.02312V4.47604L40.5596 3.51646L41.5094 2.56667H45.2596H49V1.78333V1H44.9169H40.8435L39.649 2.175L38.4642 3.35H36.9269C35.419 3.35 35.3798 3.35979 35.1448 3.59479C34.9098 3.82979 34.9 3.86896 34.9 5.37688V6.92396L33.5487 8.27521L32.2073 9.61666H30.6602C29.1523 9.61666 29.1131 9.62646 28.8781 9.86146C28.6431 10.0965 28.6333 10.1356 28.6333 11.6435V13.1906L27.2821 14.5419L25.9406 15.8833H24.3935C22.8856 15.8833 22.8465 15.8931 22.6115 16.1281C22.3765 16.3631 22.3667 16.4023 22.3667 17.9102V19.4573L20.6238 21.2002L18.8906 22.9333H17.5492H16.2175L16.3546 22.3458C16.8931 20.0448 18.2542 18.106 20.3985 16.6079C20.4377 16.5688 19.7131 15.3937 19.6054 15.335C19.4879 15.2567 18.1954 16.2554 17.5981 16.8821C15.2285 19.3985 14.1123 22.9529 14.6802 26.2233C14.9054 27.5256 15.1796 28.3188 15.7671 29.484C17.4023 32.7054 20.4377 34.8498 24.0802 35.3687C24.4621 35.4177 27.1352 35.4667 30.151 35.4667L35.5365 35.4765L35.0958 35.8681C33.3921 37.3858 30.6504 38.6685 28.0948 39.1483C26.7729 39.3931 24.1585 39.4029 22.9052 39.1581C19.6935 38.5315 17.0008 37.0823 14.8173 34.8204C12.3204 32.2158 10.9104 29.0433 10.6558 25.4302L10.5873 24.5H9.82354H9.05V24.9798C9.05 25.5085 9.29479 27.4571 9.43187 28.0446L9.52 28.4167H6.54333H3.56667V24.5V20.5833H6.83708C9.80396 20.5833 10.1271 20.5637 10.3033 20.4071C10.5285 20.221 11.8896 16.9996 11.8896 16.6471C11.8896 16.4904 11.2238 15.756 9.56896 14.1012L7.23854 11.7708L10.0096 9.00958L12.7708 6.23854L15.1012 8.56896C16.7952 10.2531 17.4904 10.8896 17.6569 10.8896C18.0094 10.8896 21.221 9.53833 21.4169 9.30333C21.5637 9.12708 21.5833 8.80396 21.5833 5.83708V2.56667H25.5H29.4167V4.91667V7.26667H30.2H30.9833V4.37812V1.47979L30.7385 1.24479L30.5035 1H25.5H20.4965L20.2615 1.24479ZM38.0333 5.7V6.48333H37.25H36.4667V5.7V4.91667H37.25H38.0333V5.7ZM47.4333 21.3667V33.9H45.0833H42.7333V21.3667V8.83333H45.0833H47.4333V21.3667ZM31.7667 11.9667V12.75H30.9833H30.2V11.9667V11.1833H30.9833H31.7667V11.9667ZM41.1667 24.5V33.9H38.8167H36.4667V24.5V15.1H38.8167H41.1667V24.5ZM25.5 18.2333V19.0167H24.7167H23.9333V18.2333V17.45H24.7167H25.5V18.2333ZM34.9 26.85V33.9H32.55H30.2V26.85V19.8H32.55H34.9V26.85ZM28.6333 29.5917V33.9H26.7337C25.6958 33.9 24.6383 33.8706 24.3837 33.8413L23.9333 33.7727V29.5329V25.2833H26.2833H28.6333V29.5917ZM22.3667 31.2563C22.3667 32.7152 22.3373 33.3125 22.259 33.3125C22.0827 33.3125 20.6727 32.5781 20.1635 32.2354C19.2529 31.6087 18.1465 30.4533 17.5198 29.4644L17.3533 29.2H19.86H22.3667V31.2563ZM12.9177 35.075C13.8871 36.2304 14.8956 37.141 16.2665 38.081L16.9715 38.5706L14.8663 40.666L12.7708 42.7615L10.0096 39.9904L7.23854 37.2292L9.33396 35.1337L11.4392 33.0285L11.8798 33.6846C12.1148 34.0469 12.5848 34.6735 12.9177 35.075ZM42.8802 36.3479L43.7615 37.2292L40.9904 40.0002L38.2292 42.7615L36.1338 40.666L34.0285 38.5608L34.6454 38.1692C35.4287 37.6502 36.5744 36.7004 37.25 36.015L37.7788 35.4667H39.8937H41.999L42.8802 36.3479ZM23.4242 40.8031C25.1867 41.0381 27.4485 40.9402 29.0544 40.5681L29.4167 40.48V43.4567V46.4333H25.5H21.5833V43.4567V40.48L21.9554 40.5681C22.1513 40.6171 22.8171 40.7248 23.4242 40.8031Z" fill="#110808"/>
<path d="M20.2615 1.24479L20.0167 1.47979V4.89708V8.32417L18.9788 8.73542L17.9506 9.15646L15.5223 6.73792C13.3094 4.53479 13.0646 4.32917 12.761 4.32917C12.4575 4.32917 12.154 4.60333 8.88354 7.88354C5.60333 11.154 5.32917 11.4575 5.32917 11.761C5.32917 12.0646 5.53479 12.3094 7.73792 14.5223L10.1565 16.9506L9.73542 17.9788L9.32417 19.0167H5.89708H2.47979L2.24479 19.2615L2 19.4965V24.5V29.5035L2.24479 29.7385L2.47979 29.9833H5.89708H9.32417L9.73542 31.0212L10.1565 32.0494L7.73792 34.4777C5.53479 36.6906 5.32917 36.9354 5.32917 37.239C5.32917 37.5425 5.60333 37.846 8.88354 41.1165C12.154 44.3967 12.4575 44.6708 12.761 44.6708C13.0646 44.6708 13.3094 44.4652 15.5125 42.2719C16.8344 40.95 17.9506 39.8729 17.9898 39.8729C18.029 39.8729 18.499 40.059 19.0375 40.2744L20.0167 40.6856V44.1029V47.5202L20.2615 47.7552L20.4965 48H25.5H30.5035L30.7385 47.7552L30.9833 47.5202V44.1029V40.6758L32.0212 40.2646L33.0494 39.8435L35.4777 42.2621C37.6906 44.4652 37.9354 44.6708 38.239 44.6708C38.5425 44.6708 38.846 44.3967 42.1165 41.1165C45.3281 37.9146 45.6708 37.5425 45.6708 37.2487C45.6708 36.9942 45.5435 36.7983 44.9756 36.201L44.2706 35.4667H46.3954H48.5202L48.7552 35.2219L49 34.9869V21.3667V7.74646L48.7552 7.51146L48.5202 7.26667H45.0833H41.6465L41.4115 7.51146L41.1667 7.74646V10.6448V13.5333H38.2781H35.3798L35.1448 13.7781C34.9 14.0131 34.9 14.0131 34.9 16.1281V18.2333H32.0115H29.1131L28.8781 18.4781L28.6333 18.7131V21.2198V23.7167H25.7448H22.8465L22.6115 23.9615C22.3667 24.1965 22.3667 24.2258 22.3667 25.9198V27.6333H19.4879H16.619L16.4623 27.0654C16.2665 26.38 16.1 25.3617 16.1 24.8623V24.5H17.8331H19.5662L21.5344 22.5417L23.5025 20.5833H25.0398C26.5477 20.5833 26.5869 20.5735 26.8219 20.3385C27.0569 20.1035 27.0667 20.0644 27.0667 18.5565V17.0094L28.4179 15.6581L29.7594 14.3167H31.3065C32.8144 14.3167 32.8535 14.3069 33.0885 14.0719C33.3235 13.8369 33.3333 13.7977 33.3333 12.2898V10.7427L34.6846 9.39146L36.026 8.05H37.5731C39.081 8.05 39.1202 8.04021 39.3552 7.80521C39.5902 7.57021 39.6 7.53104 39.6 6.02312V4.47604L40.5596 3.51646L41.5094 2.56667H45.2596H49V1.78333V1H44.9169H40.8435L39.649 2.175L38.4642 3.35H36.9269C35.419 3.35 35.3798 3.35979 35.1448 3.59479C34.9098 3.82979 34.9 3.86896 34.9 5.37688V6.92396L33.5487 8.27521L32.2073 9.61666H30.6602C29.1523 9.61666 29.1131 9.62646 28.8781 9.86146C28.6431 10.0965 28.6333 10.1356 28.6333 11.6435V13.1906L27.2821 14.5419L25.9406 15.8833H24.3935C22.8856 15.8833 22.8465 15.8931 22.6115 16.1281C22.3765 16.3631 22.3667 16.4023 22.3667 17.9102V19.4573L20.6238 21.2002L18.8906 22.9333H17.5492H16.2175L16.3546 22.3458C16.8931 20.0448 18.2542 18.106 20.3985 16.6079C20.4377 16.5688 19.7131 15.3937 19.6054 15.335C19.4879 15.2567 18.1954 16.2554 17.5981 16.8821C15.2285 19.3985 14.1123 22.9529 14.6802 26.2233C14.9054 27.5256 15.1796 28.3188 15.7671 29.484C17.4023 32.7054 20.4377 34.8498 24.0802 35.3687C24.4621 35.4177 27.1352 35.4667 30.151 35.4667L35.5365 35.4765L35.0958 35.8681C33.3921 37.3858 30.6504 38.6685 28.0948 39.1483C26.7729 39.3931 24.1585 39.4029 22.9052 39.1581C19.6935 38.5315 17.0008 37.0823 14.8173 34.8204C12.3204 32.2158 10.9104 29.0433 10.6558 25.4302L10.5873 24.5H9.82354H9.05V24.9798C9.05 25.5085 9.29479 27.4571 9.43187 28.0446L9.52 28.4167H6.54333H3.56667V24.5V20.5833H6.83708C9.80396 20.5833 10.1271 20.5637 10.3033 20.4071C10.5285 20.221 11.8896 16.9996 11.8896 16.6471C11.8896 16.4904 11.2238 15.756 9.56896 14.1012L7.23854 11.7708L10.0096 9.00958L12.7708 6.23854L15.1012 8.56896C16.7952 10.2531 17.4904 10.8896 17.6569 10.8896C18.0094 10.8896 21.221 9.53833 21.4169 9.30333C21.5637 9.12708 21.5833 8.80396 21.5833 5.83708V2.56667H25.5H29.4167V4.91667V7.26667H30.2H30.9833V4.37812V1.47979L30.7385 1.24479L30.5035 1H25.5H20.4965L20.2615 1.24479ZM38.0333 5.7V6.48333H37.25H36.4667V5.7V4.91667H37.25H38.0333V5.7ZM47.4333 21.3667V33.9H45.0833H42.7333V21.3667V8.83333H45.0833H47.4333V21.3667ZM31.7667 11.9667V12.75H30.9833H30.2V11.9667V11.1833H30.9833H31.7667V11.9667ZM41.1667 24.5V33.9H38.8167H36.4667V24.5V15.1H38.8167H41.1667V24.5ZM25.5 18.2333V19.0167H24.7167H23.9333V18.2333V17.45H24.7167H25.5V18.2333ZM34.9 26.85V33.9H32.55H30.2V26.85V19.8H32.55H34.9V26.85ZM28.6333 29.5917V33.9H26.7337C25.6958 33.9 24.6383 33.8706 24.3837 33.8413L23.9333 33.7727V29.5329V25.2833H26.2833H28.6333V29.5917ZM22.3667 31.2563C22.3667 32.7152 22.3373 33.3125 22.259 33.3125C22.0827 33.3125 20.6727 32.5781 20.1635 32.2354C19.2529 31.6087 18.1465 30.4533 17.5198 29.4644L17.3533 29.2H19.86H22.3667V31.2563ZM12.9177 35.075C13.8871 36.2304 14.8956 37.141 16.2665 38.081L16.9715 38.5706L14.8663 40.666L12.7708 42.7615L10.0096 39.9904L7.23854 37.2292L9.33396 35.1337L11.4392 33.0285L11.8798 33.6846C12.1148 34.0469 12.5848 34.6735 12.9177 35.075ZM42.8802 36.3479L43.7615 37.2292L40.9904 40.0002L38.2292 42.7615L36.1338 40.666L34.0285 38.5608L34.6454 38.1692C35.4287 37.6502 36.5744 36.7004 37.25 36.015L37.7788 35.4667H39.8937H41.999L42.8802 36.3479ZM23.4242 40.8031C25.1867 41.0381 27.4485 40.9402 29.0544 40.5681L29.4167 40.48V43.4567V46.4333H25.5H21.5833V43.4567V40.48L21.9554 40.5681C22.1513 40.6171 22.8171 40.7248 23.4242 40.8031Z" stroke="#110808" stroke-width="0.8" mask="url(#path-1-outside-1_377_2663)"/>
</svg>
