<svg width="56" height="56" viewBox="0 0 56 56" fill="none" xmlns="http://www.w3.org/2000/svg">
<circle cx="28" cy="28" r="28" fill="#2B50F3"/>
<path d="M18.3891 17.7454C20.9633 15.6825 24.2284 14.449 27.7811 14.449C31.3338 14.449 34.599 15.6825 37.1732 17.7454L39.603 15.3111L41.9674 17.6798L39.5375 20.1141C41.5966 22.693 42.8279 25.9641 42.8279 29.5234C42.8279 37.8488 36.0913 44.5978 27.7811 44.5978C19.471 44.5978 12.7344 37.8488 12.7344 29.5234C12.7344 25.9641 13.9657 22.693 16.0248 20.1141L13.5949 17.6798L15.9593 15.3111L18.3891 17.7454ZM27.7811 41.2479C34.2446 41.2479 39.4842 35.9987 39.4842 29.5234C39.4842 23.0481 34.2446 17.7988 27.7811 17.7988C21.3177 17.7988 16.0781 23.0481 16.0781 29.5234C16.0781 35.9987 21.3177 41.2479 27.7811 41.2479ZM29.453 27.8484H34.4686L26.1093 38.7355V31.1983H21.0937L29.453 20.3032V27.8484Z" fill="white"/>
</svg>
