<svg width="12" height="14" viewBox="0 0 12 14" fill="none" xmlns="http://www.w3.org/2000/svg">
<path d="M9.55195 1.73891C8.99801 1.03923 7.99667 0.739258 6.71566 0.739258H2.99781C2.87107 0.739263 2.74849 0.789372 2.6521 0.880576C2.55571 0.97178 2.49185 1.0981 2.47198 1.23681L0.923939 12.1169C0.893169 12.3315 1.04308 12.5258 1.23931 12.5258H3.53458L4.11102 8.47399L4.09313 8.60087C4.1342 8.31447 4.35523 8.10322 4.61698 8.10322H5.70768C7.85037 8.10322 9.52814 7.13877 10.0182 4.34881C10.0328 4.2663 10.0454 4.18599 10.0563 4.10752C9.99442 4.07122 9.99442 4.07122 10.0563 4.10752C10.2022 3.07633 10.0553 2.3744 9.55195 1.73891Z" fill="#27346A"/>
<path d="M4.98928 3.73605C5.05203 3.70294 5.12066 3.68578 5.19016 3.68583H8.10488C8.45003 3.68583 8.77196 3.71072 9.06615 3.76319C9.14847 3.77774 9.23036 3.7951 9.31171 3.81526C9.42701 3.84346 9.54098 3.87797 9.6532 3.91866C9.79783 3.97219 9.93252 4.03452 10.0563 4.10752C10.2022 3.07593 10.0553 2.3744 9.55195 1.73891C8.99769 1.03923 7.99667 0.739258 6.71566 0.739258H2.9975C2.73571 0.739258 2.51301 0.950457 2.47198 1.23681L0.923939 12.1165C0.893169 12.3314 1.04308 12.5255 1.23899 12.5255H3.53458L4.73052 4.12109C4.74228 4.03849 4.77197 3.96028 4.81705 3.89321C4.86212 3.82613 4.92123 3.7722 4.98928 3.73605Z" fill="#27346A"/>
<path d="M10.0197 4.3492C9.52961 7.13876 7.85189 8.10361 5.70915 8.10361H4.61813C4.35639 8.10361 4.13531 8.31485 4.09464 8.60125L3.37751 13.6392C3.35072 13.8269 3.48175 13.9971 3.65317 13.9971H5.58802C5.69886 13.997 5.80604 13.9532 5.89031 13.8734C5.97457 13.7936 6.03038 13.6831 6.0477 13.5618L6.06655 13.4525L6.43122 10.8914L6.45471 10.7498C6.47203 10.6285 6.52784 10.518 6.61209 10.4382C6.69635 10.3585 6.80353 10.3146 6.91435 10.3146H7.20393C9.07823 10.3146 10.5459 9.47072 10.9747 7.03025C11.1537 6.01038 11.0611 5.15889 10.5876 4.5608C10.4439 4.37964 10.2655 4.23003 10.0577 4.10791C10.0465 4.18677 10.0343 4.26668 10.0197 4.3492Z" fill="#2790C3"/>
<path d="M9.54366 3.88067C9.46725 3.85594 9.3901 3.83405 9.31237 3.81503C9.23098 3.79519 9.14909 3.77795 9.06681 3.76331C8.7723 3.71048 8.45061 3.68555 8.10514 3.68555H5.19078C5.12122 3.68537 5.05254 3.70268 4.9899 3.73617C4.92177 3.77221 4.8626 3.82611 4.8175 3.8932C4.77241 3.96029 4.74275 4.03855 4.73109 4.12121L4.11164 8.47375L4.09375 8.60063C4.1345 8.31423 4.35553 8.10298 4.61732 8.10298H5.70834C7.85103 8.10298 9.52875 7.13853 10.0188 4.34858C10.0334 4.26606 10.0457 4.1861 10.0569 4.10729C9.93282 4.03468 9.79849 3.97195 9.65382 3.91878C9.61732 3.90536 9.58061 3.89266 9.5437 3.88067" fill="#1F264F"/>
</svg>
