<svg width="47" height="47" viewBox="0 0 47 47" fill="none" xmlns="http://www.w3.org/2000/svg">
<mask id="mask0_377_4000" style="mask-type:alpha" maskUnits="userSpaceOnUse" x="0" y="0" width="47" height="47">
<rect x="0.126953" y="0.582123" width="45.8969" height="45.8969" fill="#D9D9D9"/>
</mask>
<g mask="url(#mask0_377_4000)">
<path d="M9.689 40.7414C8.6372 40.7414 7.73679 40.3669 6.98778 39.6178C6.23876 38.8688 5.86426 37.9684 5.86426 36.9166V13.9682H32.6375V40.7414H9.689ZM36.4622 40.7414V36.9166H40.2869C40.2869 37.9684 39.9124 38.8688 39.1634 39.6178C38.4144 40.3669 37.514 40.7414 36.4622 40.7414ZM9.689 35.0042H28.8127L22.3106 26.3986L17.3385 33.0919L14.2787 28.9803L9.689 35.0042ZM36.4622 33.0919V29.2671H40.2869V33.0919H36.4622ZM36.4622 25.4424V21.6176H40.2869V25.4424H36.4622ZM36.4622 17.7929V13.9682H40.2869V17.7929H36.4622ZM5.86426 10.1434C5.86426 9.09162 6.23876 8.19121 6.98778 7.4422C7.73679 6.69319 8.6372 6.31868 9.689 6.31868V10.1434H5.86426ZM13.5137 10.1434V6.31868H17.3385V10.1434H13.5137ZM21.1632 10.1434V6.31868H24.988V10.1434H21.1632ZM28.8127 10.1434V6.31868H32.6375V10.1434H28.8127ZM36.4622 10.1434V6.31868C37.514 6.31868 38.4144 6.69319 39.1634 7.4422C39.9124 8.19121 40.2869 9.09162 40.2869 10.1434H36.4622Z" fill="#1C1B1F"/>
</g>
</svg>
