<svg width="51" height="51" viewBox="0 0 51 51" fill="none" xmlns="http://www.w3.org/2000/svg">
<path d="M25.4869 46.2641C14.045 46.2641 4.76953 36.9885 4.76953 25.5467C4.76953 14.1048 14.045 4.82938 25.4869 4.82938C36.9287 4.82938 46.2042 14.1048 46.2042 25.5467C46.2042 36.9885 36.9287 46.2641 25.4869 46.2641ZM22.6318 18.1187C22.4957 18.0279 22.3358 17.9795 22.1721 17.9795C21.7145 17.9795 21.3434 18.3505 21.3434 18.8082V32.2853C21.3434 32.4489 21.3919 32.6089 21.4826 32.745C21.7364 33.1258 22.251 33.2287 22.6318 32.9747L32.7396 26.2362C32.8306 26.1755 32.9087 26.0974 32.9694 26.0065C33.2234 25.6257 33.1204 25.111 32.7396 24.8573L22.6318 18.1187Z" fill="black"/>
</svg>
