<svg width="32" height="16" viewBox="0 0 32 16" fill="none" xmlns="http://www.w3.org/2000/svg">
<path d="M32 15.5C32 11.5218 30.3143 7.70643 27.3137 4.89339C24.3131 2.08035 20.2434 0.500001 16 0.5C11.7565 0.499999 7.6869 2.08035 4.68631 4.89339C1.68571 7.70643 0 11.5218 0 15.5H5.00007C6.65693 15.5 7.94908 14.1983 8.55597 12.7529C8.9544 11.8039 9.55902 10.9318 10.3431 10.1967C11.8434 8.79016 13.8783 7.99999 16 7.99999C18.1217 7.99999 20.1566 8.79016 21.6569 10.1967C23.1572 11.6032 23.9999 13.5109 23.9999 15.5H32Z" fill="url(#paint0_linear_237_736)"/>
<defs>
<linearGradient id="paint0_linear_237_736" x1="32" y1="7.99999" x2="0" y2="7.99999" gradientUnits="userSpaceOnUse">
<stop stop-color="#73E5E2"/>
<stop offset="1" stop-color="#394F87"/>
</linearGradient>
</defs>
</svg>
