<svg width="13" height="13" viewBox="0 0 13 13" fill="none" xmlns="http://www.w3.org/2000/svg">
<path d="M6.48242 11.5C3.721 11.5 1.48242 9.2614 1.48242 6.5C1.48242 3.73857 3.721 1.5 6.48242 1.5C9.24382 1.5 11.4824 3.73857 11.4824 6.5C11.4824 9.2614 9.24382 11.5 6.48242 11.5ZM6.48242 10.5C8.69157 10.5 10.4824 8.70915 10.4824 6.5C10.4824 4.29086 8.69157 2.5 6.48242 2.5C4.27328 2.5 2.48242 4.29086 2.48242 6.5C2.48242 8.70915 4.27328 10.5 6.48242 10.5ZM6.48242 5.7929L7.89662 4.37868L8.60372 5.08578L7.18952 6.5L8.60372 7.9142L7.89662 8.6213L6.48242 7.2071L5.06821 8.6213L4.3611 7.9142L5.77532 6.5L4.3611 5.08578L5.06821 4.37868L6.48242 5.7929Z" fill="black" fill-opacity="0.4"/>
</svg>
