<svg width="13" height="14" viewBox="0 0 13 14" fill="none" xmlns="http://www.w3.org/2000/svg">
<path d="M6.48242 12.2851C3.721 12.2851 1.48242 9.84177 1.48242 6.82785C1.48242 3.81389 3.721 1.37061 6.48242 1.37061C9.24382 1.37061 11.4824 3.81389 11.4824 6.82785C11.4824 9.84177 9.24382 12.2851 6.48242 12.2851ZM5.98242 8.46502V9.55647H6.98242V8.46502H5.98242ZM6.98242 7.56736C7.70527 7.33253 8.23242 6.60165 8.23242 5.7364C8.23242 4.68151 7.44892 3.82636 6.48242 3.82636C5.63342 3.82636 4.92561 4.48625 4.76608 5.36174L5.74682 5.57583C5.81522 5.20062 6.11857 4.91781 6.48242 4.91781C6.89662 4.91781 7.23242 5.28431 7.23242 5.7364C7.23242 6.18848 6.89662 6.55499 6.48242 6.55499C6.20627 6.55499 5.98242 6.79931 5.98242 7.10071V7.9193H6.98242V7.56736Z" fill="black" fill-opacity="0.4"/>
</svg>
