<svg width="13" height="12" viewBox="0 0 13 12" fill="none" xmlns="http://www.w3.org/2000/svg">
<path d="M9.24889 1.67188C8.86008 1.67188 8.4872 1.82633 8.21228 2.10125C7.93735 2.37618 7.7829 2.74906 7.7829 3.13786L7.7829 9.00182C7.7829 9.39062 7.93735 9.7635 8.21228 10.0384C8.4872 10.3134 8.86008 10.4678 9.24889 10.4678C9.63769 10.4678 10.0106 10.3134 10.2855 10.0384C10.5604 9.7635 10.7149 9.39062 10.7149 9.00182C10.7149 8.61301 10.5604 8.24013 10.2855 7.96521C10.0106 7.69028 9.63769 7.53583 9.24889 7.53583H3.38493C2.99613 7.53583 2.62325 7.69028 2.34832 7.96521C2.0734 8.24013 1.91895 8.61301 1.91895 9.00182C1.91895 9.39062 2.0734 9.7635 2.34832 10.0384C2.62325 10.3134 2.99613 10.4678 3.38493 10.4678C3.77374 10.4678 4.14662 10.3134 4.42154 10.0384C4.69647 9.7635 4.85092 9.39062 4.85092 9.00182L4.85092 3.13786C4.85092 2.74906 4.69647 2.37618 4.42154 2.10125C4.14662 1.82633 3.77374 1.67188 3.38493 1.67188C2.99613 1.67188 2.62325 1.82633 2.34832 2.10125C2.0734 2.37618 1.91895 2.74906 1.91895 3.13786C1.91895 3.52667 2.0734 3.89955 2.34832 4.17447C2.62325 4.4494 2.99613 4.60385 3.38493 4.60385H9.24889C9.63769 4.60385 10.0106 4.4494 10.2855 4.17447C10.5604 3.89955 10.7149 3.52667 10.7149 3.13786C10.7149 2.74906 10.5604 2.37618 10.2855 2.10125C10.0106 1.82633 9.63769 1.67188 9.24889 1.67188Z" stroke="#B4BCCF" stroke-width="0.781861" stroke-linecap="round" stroke-linejoin="round"/>
</svg>
