<svg width="13" height="13" viewBox="0 0 13 13" fill="none" xmlns="http://www.w3.org/2000/svg">
<path d="M3.21501 1.50195L1.74902 3.4566L1.74902 10.2979C1.74902 10.5571 1.85199 10.8057 2.03528 10.989C2.21856 11.1722 2.46715 11.2752 2.72635 11.2752H9.56763C9.82683 11.2752 10.0754 11.1722 10.2587 10.989C10.442 10.8057 10.545 10.5571 10.545 10.2979L10.545 3.4566L9.07897 1.50195H3.21501Z" stroke="#B4BCCF" stroke-width="0.781861" stroke-linecap="round" stroke-linejoin="round"/>
<path d="M1.74902 3.45654H10.545" stroke="#B4BCCF" stroke-width="0.781861" stroke-linecap="round" stroke-linejoin="round"/>
<path d="M8.10364 5.41162C8.10364 5.93003 7.8977 6.4272 7.53113 6.79377C7.16457 7.16034 6.66739 7.36627 6.14899 7.36627C5.63058 7.36627 5.13341 7.16034 4.76684 6.79377C4.40027 6.4272 4.19434 5.93003 4.19434 5.41162" stroke="#B4BCCF" stroke-width="0.781861" stroke-linecap="round" stroke-linejoin="round"/>
</svg>
