<svg width="13" height="13" viewBox="0 0 13 13" fill="none" xmlns="http://www.w3.org/2000/svg">
<g clip-path="url(#clip0_377_3179)">
<path d="M10.0569 6.85596V11.7426H2.23828L2.23828 6.85596" stroke="#B4BCCF" stroke-width="0.781861" stroke-linecap="round" stroke-linejoin="round"/>
<path d="M11.033 4.4126H1.25977L1.25977 6.85591H11.033V4.4126Z" stroke="#B4BCCF" stroke-width="0.781861" stroke-linecap="round" stroke-linejoin="round"/>
<path d="M6.14648 11.7425L6.14648 4.4126" stroke="#B4BCCF" stroke-width="0.781861" stroke-linecap="round" stroke-linejoin="round"/>
<path d="M6.14818 4.41255H3.9492C3.62519 4.41255 3.31446 4.28384 3.08535 4.05474C2.85625 3.82563 2.72754 3.5149 2.72754 3.1909C2.72754 2.86689 2.85625 2.55616 3.08535 2.32705C3.31446 2.09795 3.62519 1.96924 3.9492 1.96924C5.65952 1.96924 6.14818 4.41255 6.14818 4.41255Z" stroke="#B4BCCF" stroke-width="0.781861" stroke-linecap="round" stroke-linejoin="round"/>
<path d="M6.14648 4.41255H8.34547C8.66947 4.41255 8.9802 4.28384 9.20931 4.05474C9.43841 3.82563 9.56712 3.5149 9.56712 3.1909C9.56712 2.86689 9.43841 2.55616 9.20931 2.32705C8.9802 2.09795 8.66947 1.96924 8.34547 1.96924C6.63515 1.96924 6.14648 4.41255 6.14648 4.41255Z" stroke="#B4BCCF" stroke-width="0.781861" stroke-linecap="round" stroke-linejoin="round"/>
</g>
<defs>
<clipPath id="clip0_377_3179">
<rect width="11.7279" height="11.7279" fill="white" transform="translate(0.283203 0.992188)"/>
</clipPath>
</defs>
</svg>
