<svg width="72" height="15" viewBox="0 0 72 15" fill="none" xmlns="http://www.w3.org/2000/svg">
<mask id="mask0_377_3623" style="mask-type:alpha" maskUnits="userSpaceOnUse" x="14" y="0" width="14" height="15">
<rect x="14" y="0.5" width="14" height="14" fill="#D9D9D9"/>
</mask>
<g mask="url(#mask0_377_3623)">
<path d="M17.295 13.5L18.69 8.94L15 6.3H19.56L21 1.5L22.44 6.3H27L23.31 8.94L24.705 13.5L21 10.68L17.295 13.5Z" fill="#F29E12"/>
</g>
<mask id="mask1_377_3623" style="mask-type:alpha" maskUnits="userSpaceOnUse" x="29" y="0" width="14" height="15">
<rect x="29" y="0.5" width="14" height="14" fill="#D9D9D9"/>
</mask>
<g mask="url(#mask1_377_3623)">
<path d="M32.295 13.5L33.69 8.94L30 6.3H34.56L36 1.5L37.44 6.3H42L38.31 8.94L39.705 13.5L36 10.68L32.295 13.5Z" fill="#F29E12"/>
</g>
<mask id="mask2_377_3623" style="mask-type:alpha" maskUnits="userSpaceOnUse" x="43" y="0" width="14" height="15">
<rect x="43" y="0.5" width="14" height="14" fill="#D9D9D9"/>
</mask>
<g mask="url(#mask2_377_3623)">
<path d="M46.295 13.5L47.69 8.94L44 6.3H48.56L50 1.5L51.44 6.3H56L52.31 8.94L53.705 13.5L50 10.68L46.295 13.5Z" fill="#F29E12"/>
</g>
<mask id="mask3_377_3623" style="mask-type:alpha" maskUnits="userSpaceOnUse" x="58" y="0" width="14" height="15">
<rect x="58" y="0.5" width="14" height="14" fill="#D9D9D9"/>
</mask>
<g mask="url(#mask3_377_3623)">
<path d="M61.295 13.5L62.69 8.94L59 6.3H63.56L65 1.5L66.44 6.3H71L67.31 8.94L68.705 13.5L65 10.68L61.295 13.5Z" fill="#F29E12"/>
</g>
<mask id="mask4_377_3623" style="mask-type:alpha" maskUnits="userSpaceOnUse" x="0" y="0" width="14" height="15">
<rect y="0.5" width="14" height="14" fill="#D9D9D9"/>
</mask>
<g mask="url(#mask4_377_3623)">
<path d="M3.295 13.5L4.69 8.94L1 6.3H5.56L7 1.5L8.44 6.3H13L9.31 8.94L10.705 13.5L7 10.68L3.295 13.5Z" fill="#F29E12"/>
</g>
</svg>
