<svg width="145" height="24" viewBox="0 0 145 24" fill="none" xmlns="http://www.w3.org/2000/svg">
<path d="M12 17.4277L6.12868 21L7.725 14.3338L2.5 9.87538L9.3579 9.32771L12 3L14.642 9.32771L21.5 9.87538L16.275 14.3338L17.8713 21L12 17.4277Z" fill="#F29E12"/>
<path d="M42 17.4277L36.1287 21L37.725 14.3338L32.5 9.87538L39.3579 9.32771L42 3L44.642 9.32771L51.5 9.87538L46.275 14.3338L47.8713 21L42 17.4277Z" fill="#F29E12"/>
<path d="M72 17.4277L66.1287 21L67.725 14.3338L62.5 9.87538L69.3579 9.32771L72 3L74.642 9.32771L81.5 9.87538L76.275 14.3338L77.8713 21L72 17.4277Z" fill="#F29E12"/>
<path d="M102 17.4277L96.1287 21L97.725 14.3338L92.5 9.87538L99.3579 9.32771L102 3L104.642 9.32771L111.5 9.87538L106.275 14.3338L107.871 21L102 17.4277Z" fill="#F29E12"/>
<path d="M132.5 15.1132L135.849 16.9748L135.101 13.2366L137.919 10.649L134.108 10.2002L132.5 6.73939V15.1132ZM132.5 16.9081L126.938 20L128.18 13.7912L123.5 9.49343L129.83 8.74811L132.5 3L135.17 8.74811L141.5 9.49343L136.82 13.7912L138.062 20L132.5 16.9081Z" fill="#F29E12"/>
</svg>
