<svg width="32" height="16" viewBox="0 0 32 16" fill="none" xmlns="http://www.w3.org/2000/svg">
<path d="M0 0.5C-3.00588e-07 2.46987 0.413851 4.4204 1.21792 6.2403C2.022 8.06019 3.20055 9.71377 4.68629 11.1067C6.17202 12.4995 7.93585 13.6044 9.87705 14.3582C11.8182 15.1121 13.8988 15.5 16 15.5C18.1011 15.5 20.1817 15.1121 22.1229 14.3582C24.0641 13.6044 25.8279 12.4995 27.3137 11.1067C28.7994 9.71377 29.9779 8.06019 30.782 6.2403C31.5861 4.4204 32 2.46987 32 0.5H26.9999C25.3431 0.5 24.0509 1.80171 23.444 3.24701C23.4268 3.2882 23.4091 3.3292 23.391 3.3702C22.989 4.2801 22.3997 5.10694 21.6568 5.80333C20.914 6.49973 20.032 7.05225 19.0614 7.42916C18.0909 7.80608 17.0506 8.00005 16 8.00005C14.9494 8.00005 13.9091 7.80608 12.9386 7.42916C11.9679 7.05225 11.086 6.49973 10.3431 5.80333C9.60026 5.10694 9.01099 4.2801 8.60896 3.3702C8.20691 2.4602 7.99999 1.48493 7.99999 0.5H0Z" fill="url(#paint0_linear_237_738)"/>
<defs>
<linearGradient id="paint0_linear_237_738" x1="1.04907e-06" y1="8.00005" x2="32" y2="8.00005" gradientUnits="userSpaceOnUse">
<stop stop-color="#FBDC8E"/>
<stop offset="1" stop-color="#FB958E"/>
</linearGradient>
</defs>
</svg>
