<svg width="50" height="50" viewBox="0 0 50 50" fill="none" xmlns="http://www.w3.org/2000/svg">
<path d="M4.39417 8.14629C3.46643 8.47314 2.79259 9.12684 2.40196 10.0975C2.19688 10.6026 2.19688 10.6422 2.16759 23.1418L2.14806 35.6908L1.30821 35.7205C0.526949 35.7601 0.458589 35.78 0.224213 36.0474C-0.01993 36.3346 -0.01993 36.3346 0.0191328 38.1768C0.0484299 39.8507 0.0679613 40.0587 0.263275 40.4252C0.595309 41.0492 0.907812 41.3859 1.48399 41.7029L2.00157 42H24.9998H47.998L48.5254 41.7029C49.1601 41.3463 49.5508 40.8808 49.8047 40.1875C49.9707 39.7418 50 39.4149 50 37.9887C50 36.3643 49.9902 36.3049 49.7656 36.0375C49.541 35.78 49.4629 35.7601 48.6914 35.7205L47.8515 35.6908L47.832 23.1418L47.8027 10.6026L47.5879 10.0777C47.2851 9.31503 46.7871 8.76037 46.0742 8.36419L45.4589 8.02744L25.1463 8.00763C6.86489 7.98782 4.79456 7.99772 4.39417 8.14629ZM45.2441 9.70131C45.6543 9.86968 46.0547 10.355 46.1914 10.8304C46.25 11.0681 46.289 15.3271 46.289 23.4488V35.7106H24.9998H3.71057V23.4488C3.71057 15.3271 3.74963 11.0681 3.80823 10.8304C3.93518 10.3649 4.34534 9.86968 4.73597 9.70131C5.17542 9.50321 44.7753 9.50321 45.2441 9.70131ZM18.9744 38.0778C19.0232 38.9395 19.1892 39.2961 19.6384 39.5338C20.0584 39.7517 29.951 39.7418 30.3709 39.5239C30.7811 39.306 30.9764 38.8504 31.035 38.0085L31.0838 37.2953H39.7558H48.4375V38.3848C48.4375 39.6229 48.3301 39.9597 47.8222 40.2667C47.5195 40.4648 47.1582 40.4648 25.0193 40.4648C0.165619 40.4648 2.15782 40.5143 1.75743 39.8408C1.59141 39.5734 1.56211 39.3357 1.56211 38.4047V37.2953H10.2438H18.9158L18.9744 38.0778ZM29.4725 37.7113L29.5018 38.0877H25.0096H20.5076V37.7609C20.5076 37.5727 20.5369 37.3944 20.5759 37.3647C20.6052 37.3251 22.617 37.3052 25.0389 37.3152L29.4432 37.3449L29.4725 37.7113Z" fill="#110808"/>
<path d="M21.2464 10.3125C20.9714 10.6375 20.9307 10.95 21.1038 11.4125C21.2973 11.95 21.5722 12 24.1079 12H26.501L26.7454 11.6875C26.9083 11.5 27 11.2375 27 11C27 10.7625 26.9083 10.5 26.7454 10.3125L26.501 10H23.9959H21.4908L21.2464 10.3125Z" fill="#110808"/>
<path d="M27.3125 10.3125C27.1125 10.5 27 10.7625 27 11C27 11.45 27.475 12 27.8625 12C28.4875 12 29 11.4875 29 10.8625C29 10.475 28.45 10 28 10C27.7625 10 27.5 10.1125 27.3125 10.3125Z" fill="#110808"/>
<path d="M10.6174 15.1447C10.4823 15.2215 10.2797 15.4041 10.1833 15.5482C10.0096 15.8077 10 16.1152 10 22.9762C10 29.6643 10.0096 30.164 10.1736 30.4042C10.2605 30.5484 10.4534 30.7405 10.5981 30.827C10.8489 30.9904 11.6495 31 25 31C38.3505 31 39.1511 30.9904 39.4019 30.827C39.5466 30.7405 39.7395 30.5484 39.8264 30.4042C39.9904 30.164 40 29.6643 40 22.9762C40 16.1056 39.9904 15.8077 39.8167 15.5482C39.4212 14.9621 40.3955 15.0005 24.9807 15.0005C12.9904 15.0101 10.8296 15.0293 10.6174 15.1447ZM38.4855 22.9955L38.4566 29.4625H25H11.5434L11.5145 22.9955L11.4952 16.538H25H38.5048L38.4855 22.9955Z" fill="#110808"/>
<path d="M16.0182 18.22C15.7802 18.48 12.9905 26.86 13 27.32C13 27.64 13.3904 28 13.7331 28C14.133 28 14.3139 27.82 14.5234 27.23C14.6281 26.91 14.7709 26.53 14.8281 26.37L14.9233 26.1H16.5133H18.1033L18.3223 26.82C18.446 27.21 18.646 27.64 18.7697 27.77C19.1791 28.2 19.8551 27.98 19.998 27.38C20.036 27.23 19.5409 25.61 18.6174 22.8C17.1131 18.21 17.0179 18 16.4657 18C16.3324 18 16.1324 18.1 16.0182 18.22ZM17.0845 23.02L17.5606 24.5H16.5228C15.942 24.5 15.4755 24.47 15.4755 24.43C15.4755 24.2 16.4847 21.34 16.5323 21.43C16.5704 21.5 16.8179 22.21 17.0845 23.02Z" fill="#110808"/>
<path d="M21.2368 18.2596L21 18.5093V23.0528V27.5964L21.2557 27.8061C21.502 28.0158 21.5967 28.0158 23.4627 27.9858C25.3665 27.9559 25.4139 27.9559 25.9443 27.6763C26.6926 27.2868 27.2987 26.6377 27.6587 25.8289C27.9523 25.1698 27.9618 25.1299 27.9902 23.4323C28.047 20.8959 27.8765 20.1869 26.9578 19.1584C26.6641 18.8388 26.2758 18.5392 25.8969 18.3595C25.3191 18.0799 25.2718 18.0699 23.3964 18.0399L21.4831 18L21.2368 18.2596ZM25.0823 19.7275C25.5654 19.9073 26.0011 20.2768 26.2284 20.7461C26.4179 21.1156 26.4463 21.3452 26.4747 22.7133C26.5221 24.5207 26.4273 25.1099 26.0011 25.6491C25.5181 26.2782 25.1202 26.4081 23.7279 26.4081H22.5155V23.0129V19.6177H23.6426C24.2583 19.6177 24.9024 19.6676 25.0823 19.7275Z" fill="#110808"/>
<path d="M32.553 18.125C31.4757 18.3668 30.5496 19.0823 30.181 19.9287C29.9164 20.5635 29.9448 21.4402 30.2472 22.0951C30.6819 23.0222 31.3623 23.4152 33.1956 23.788C35.1045 24.1709 35.4825 24.3926 35.4825 25.1181C35.4825 25.7932 34.4997 26.4482 33.498 26.4482C32.553 26.4482 31.5135 25.7832 31.5135 25.1886C31.5135 24.836 31.041 24.3321 30.7102 24.3321C30.5685 24.3321 30.3606 24.443 30.2188 24.5941C30.0109 24.8158 29.9826 24.9166 30.0204 25.3902C30.096 26.4079 30.8236 27.2946 31.9576 27.7682C32.4018 27.9496 32.6947 28 33.498 28C34.6226 28 35.2746 27.7884 35.9834 27.214C36.9378 26.4381 37.2686 25.0879 36.7677 23.9895C36.3425 23.0726 35.6621 22.6594 33.9989 22.3168C31.9104 21.8936 31.5135 21.6719 31.5135 20.9565C31.5135 20.0698 32.846 19.4148 34.0934 19.6969C34.736 19.838 35.3597 20.2914 35.4447 20.6744C35.5487 21.1883 35.6999 21.5208 35.87 21.6115C36.144 21.7727 36.4748 21.7324 36.7488 21.5006C36.9473 21.3293 36.9945 21.2185 36.9945 20.8255C36.9851 19.5458 35.8605 18.3971 34.3107 18.0948C33.6209 17.9638 33.224 17.9638 32.553 18.125Z" fill="#110808"/>
</svg>
