<svg width="41" height="41" viewBox="0 0 41 41" fill="none" xmlns="http://www.w3.org/2000/svg">
<path fill-rule="evenodd" clip-rule="evenodd" d="M8.76656 3.68781C7.30013 4.71318 5.97409 5.9255 4.82296 7.29021C9.527 6.85349 15.5033 7.5666 22.4417 11.0358C29.8511 14.7404 35.8174 14.8657 39.9697 14.0647C39.5929 12.924 39.1185 11.8277 38.5567 10.7854C33.8035 11.2868 27.7098 10.6232 20.6082 7.07248C16.0986 4.81768 12.1235 3.88886 8.76656 3.68781ZM35.7801 6.83332C32.0264 2.63937 26.5715 0 20.5 0C18.717 0 16.987 0.22766 15.3378 0.655467C17.5714 1.26494 19.9443 2.15659 22.4417 3.40532C27.6412 6.00499 32.1301 6.84204 35.7801 6.83332ZM40.8574 18.0688C35.8411 19.0593 28.914 18.8559 20.6082 14.703C12.8432 10.8205 6.66295 10.8694 2.49475 11.7957C2.2796 11.8434 2.06952 11.8937 1.86451 11.9459C1.31879 13.1328 0.883176 14.3808 0.57062 15.6768C0.904447 15.5877 1.2494 15.5029 1.60532 15.4238C6.66207 14.3001 13.8068 14.3489 22.4417 18.6664C30.2068 22.5489 36.3871 22.5 40.5554 21.5737C40.6981 21.542 40.8389 21.5092 40.9772 21.4754C40.9924 21.1522 41 20.827 41 20.5C41 19.6774 40.9516 18.8661 40.8574 18.0688ZM40.3079 25.8016C35.3403 26.6701 28.6149 26.3368 20.6082 22.3335C12.8432 18.451 6.66295 18.4999 2.49475 19.4262C1.56953 19.6317 0.737221 19.8821 0.00300325 20.1465C0.00100143 20.264 0 20.3819 0 20.5C0 31.8218 9.17816 41 20.5 41C29.9885 41 37.9714 34.5537 40.3079 25.8016Z" fill="white"/>
</svg>
